# Blender v2.81 (sub 16) OBJ File: ''
# www.blender.org
mtllib Computer Screen.mtl
o ObjObject
v -1.700000 0.600001 0.852475
v -1.700000 0.500001 0.152475
v -1.700000 0.500001 0.952475
v -1.700000 0.600001 0.252475
v -1.700000 3.000000 0.852475
v -1.700000 3.000001 0.252475
v -1.700000 3.100000 0.952475
v -1.700000 3.100001 0.152475
v -1.300000 0.800001 0.052475
v -1.300000 0.700001 -1.347525
v -1.300000 0.700001 0.152475
v -1.300000 0.800001 -1.247525
v -1.300000 2.500001 0.052475
v -1.300000 2.500001 -1.247525
v -1.300000 2.600001 0.152475
v -1.300000 2.600001 -1.347525
v -1.100000 0.100000 1.152475
v -1.100000 0.000001 -1.247525
v -1.100000 0.000001 1.152475
v -1.100000 0.100001 -1.247525
v -0.600000 0.200001 0.052475
v -0.600000 0.100001 -0.947525
v -0.600000 0.100001 0.152475
v -0.600000 0.200001 -0.847525
v -0.600000 0.500001 0.152475
v -0.600000 0.600001 0.152475
v -0.600000 0.600001 0.052475
v -0.600000 0.600001 -0.847525
v -0.600000 0.700001 0.152475
v -0.600000 0.700001 0.052475
v -0.600000 0.700001 -0.947525
v 1.600000 3.000000 0.952475
v 1.600000 0.600001 0.852475
v 1.600000 0.600000 0.952475
v 1.600000 3.000000 0.852475
v -1.600000 0.600000 0.952475
v -1.600000 0.600001 0.852475
v -1.600000 3.000000 0.952475
v -1.600000 3.000000 0.852475
v 0.600000 0.100001 0.152475
v 0.600000 0.100001 -0.947525
v 0.600000 0.200001 0.052475
v 0.600000 0.200001 -0.847525
v 0.600000 0.500001 0.152475
v 0.600000 0.600001 0.152475
v 0.600000 0.600001 0.052475
v 0.600000 0.600001 -0.847525
v 0.600000 0.700001 0.152475
v 0.600000 0.700001 0.052475
v 0.600000 0.700001 -0.947525
v 1.100000 0.000001 1.152475
v 1.100000 0.000001 -1.247525
v 1.100000 0.100000 1.152475
v 1.100000 0.100001 -1.247525
v 1.300000 0.700001 0.152475
v 1.300000 0.700001 -1.347525
v 1.300000 0.800001 0.052475
v 1.300000 0.800001 -1.247525
v 1.300000 2.500001 0.052475
v 1.300000 2.500001 -1.247525
v 1.300000 2.600001 0.152475
v 1.300000 2.600001 -1.347525
v 1.700000 0.500001 0.952475
v 1.700000 0.500001 0.152475
v 1.700000 0.600001 0.852475
v 1.700000 0.600001 0.252475
v 1.700000 3.000000 0.852475
v 1.700000 3.000001 0.252475
v 1.700000 3.100000 0.952475
v 1.700000 3.100001 0.152475
v 1.100000 0.000001 1.152475
v -1.100000 0.100000 1.152475
v -1.100000 0.000001 1.152475
v 1.100000 0.100000 1.152475
v -1.600000 0.600000 0.952475
v -1.700000 3.100000 0.952475
v -1.700000 0.500001 0.952475
v -1.600000 3.000000 0.952475
v 1.600000 0.600000 0.952475
v 1.600000 3.000000 0.952475
v 1.700000 0.500001 0.952475
v 1.700000 3.100000 0.952475
v 1.600000 0.600001 0.852475
v -1.600000 3.000000 0.852475
v -1.600000 0.600001 0.852475
v 1.600000 3.000000 0.852475
v -0.500000 0.200001 0.152475
v -0.600000 0.500001 0.152475
v -0.600000 0.100001 0.152475
v -0.500000 0.500001 0.152475
v 0.500000 0.200001 0.152475
v 0.500000 0.500001 0.152475
v 0.600000 0.100001 0.152475
v 0.600000 0.500001 0.152475
v -1.700000 0.500001 0.152475
v -1.700000 3.100001 0.152475
v -1.600000 0.600001 0.152475
v -1.600000 3.000001 0.152475
v -1.300000 0.700001 0.152475
v -1.300000 2.600001 0.152475
v -0.600000 0.500001 0.152475
v -0.600000 0.600001 0.152475
v -0.600000 0.700001 0.152475
v 0.600000 0.600001 0.152475
v 0.600000 0.700001 0.152475
v 1.300000 0.700001 0.152475
v 1.300000 2.600001 0.152475
v 1.600000 0.600001 0.152475
v 0.600000 0.500001 0.152475
v 1.600000 3.000001 0.152475
v 1.700000 0.500001 0.152475
v 1.700000 3.100001 0.152475
v -0.600000 0.100001 -0.947525
v -0.600000 0.700001 -0.947525
v -0.500000 0.200001 -0.947525
v -0.500000 0.600001 -0.947525
v 0.500000 0.200001 -0.947525
v 0.500000 0.600001 -0.947525
v 0.600000 0.100001 -0.947525
v 0.600000 0.700001 -0.947525
v -1.100000 0.000001 -1.247525
v -1.100000 0.100001 -1.247525
v 1.100000 0.000001 -1.247525
v 1.100000 0.100001 -1.247525
v -1.300000 0.700001 -1.347525
v -1.300000 2.600001 -1.347525
v -1.200000 0.800001 -1.347525
v -1.200000 2.500001 -1.347525
v 1.200000 0.800001 -1.347525
v 1.200000 2.500001 -1.347525
v 1.300000 0.700001 -1.347525
v 1.300000 2.600001 -1.347525
v -1.000000 0.000001 1.052475
v 1.100000 0.000001 1.152475
v -1.100000 0.000001 1.152475
v 1.000000 0.000001 1.052475
v -1.000000 0.000001 -1.147525
v 1.000000 0.000001 -1.147525
v -1.100000 0.000001 -1.247525
v 1.100000 0.000001 -1.247525
v -1.600000 0.500001 0.852475
v 1.700000 0.500001 0.952475
v -1.700000 0.500001 0.952475
v 1.600000 0.500001 0.852475
v -1.600000 0.500001 0.252475
v 1.600000 0.500001 0.252475
v -1.700000 0.500001 0.152475
v -0.600000 0.500001 0.152475
v -0.500000 0.500001 0.152475
v 0.500000 0.500001 0.152475
v 0.600000 0.500001 0.152475
v 1.700000 0.500001 0.152475
v -1.200000 0.700001 0.052475
v -0.600000 0.700001 0.152475
v -1.300000 0.700001 0.152475
v -0.600000 0.700001 0.052475
v 0.600000 0.700001 0.052475
v 1.300000 0.700001 0.152475
v 0.600000 0.700001 0.152475
v 1.200000 0.700001 0.052475
v -0.600000 0.700001 -0.947525
v 0.600000 0.700001 -0.947525
v -1.200000 0.700001 -1.247525
v 1.200000 0.700001 -1.247525
v -1.300000 0.700001 -1.347525
v 1.300000 0.700001 -1.347525
v -1.600000 3.000000 0.852475
v 1.600000 3.000000 0.952475
v -1.600000 3.000000 0.952475
v 1.600000 3.000000 0.852475
v -1.100000 0.100000 1.152475
v 1.100000 0.100000 1.152475
v -1.000000 0.100000 1.052475
v 1.000000 0.100000 1.052475
v -0.600000 0.100001 0.152475
v 0.600000 0.100001 0.152475
v -0.600000 0.100001 -0.947525
v 0.600000 0.100001 -0.947525
v -1.000000 0.100001 -1.147525
v 1.000000 0.100001 -1.147525
v -1.100000 0.100001 -1.247525
v 1.100000 0.100001 -1.247525
v -1.600000 0.600000 0.952475
v 1.600000 0.600000 0.952475
v -1.600000 0.600001 0.852475
v 1.600000 0.600001 0.852475
v -1.300000 2.600001 0.152475
v 1.300000 2.600001 0.152475
v -1.200000 2.600001 0.052475
v 1.200000 2.600001 0.052475
v -1.200000 2.600001 -1.247525
v 1.200000 2.600001 -1.247525
v -1.300000 2.600001 -1.347525
v 1.300000 2.600001 -1.347525
v -1.700000 3.100000 0.952475
v 1.700000 3.100000 0.952475
v -1.600000 3.100000 0.852475
v 1.600000 3.100000 0.852475
v -1.600000 3.100001 0.252475
v 1.600000 3.100001 0.252475
v -1.700000 3.100001 0.152475
v 1.700000 3.100001 0.152475
vt 0.970703 0.500000
vt 0.970703 0.500000
vt 0.970703 0.500000
vt 0.970703 0.500000
vt 0.970703 0.500000
vt 0.974609 0.500000
vt 0.974609 0.500000
vt 0.974609 0.500000
vt 0.970703 0.500000
vt 0.974609 0.500000
vt 0.970703 0.500000
vt 0.970703 0.500000
vt 0.970703 0.500000
vt 0.970703 0.500000
vt 0.970703 0.500000
vt 0.970703 0.500000
vt 0.970703 0.500000
vt 0.974609 0.500000
vt 0.974609 0.500000
vt 0.974609 0.500000
vt 0.970703 0.500000
vt 0.974609 0.500000
vt 0.970703 0.500000
vt 0.970703 0.500000
vt 0.970703 0.500000
vt 0.970703 0.500000
vt 0.970703 0.500000
vt 0.970703 0.500000
vt 0.970703 0.500000
vt 0.970703 0.500000
vt 0.970703 0.500000
vt 0.970703 0.500000
vt 0.970703 0.500000
vt 0.970703 0.500000
vt 0.974609 0.500000
vt 0.974609 0.500000
vt 0.974609 0.500000
vt 0.970703 0.500000
vt 0.970703 0.500000
vt 0.974609 0.500000
vt 0.970703 0.500000
vt 0.970703 0.500000
vt 0.970703 0.500000
vt 0.970703 0.500000
vt 0.970703 0.500000
vt 0.970703 0.500000
vt 0.970703 0.500000
vt 0.970703 0.500000
vt 0.970703 0.500000
vt 0.970703 0.500000
vt 0.970703 0.500000
vt 0.970703 0.500000
vt 0.970703 0.500000
vt 0.970703 0.500000
vt 0.970703 0.500000
vt 0.970703 0.500000
vt 0.970703 0.500000
vt 0.974609 0.500000
vt 0.974609 0.500000
vt 0.974609 0.500000
vt 0.970703 0.500000
vt 0.970703 0.500000
vt 0.974609 0.500000
vt 0.970703 0.500000
vt 0.970703 0.500000
vt 0.970703 0.500000
vt 0.970703 0.500000
vt 0.970703 0.500000
vt 0.970703 0.500000
vt 0.970703 0.500000
vt 0.970703 0.500000
vt 0.970703 0.500000
vt 0.970703 0.500000
vt 0.970703 0.500000
vt 0.970703 0.500000
vt 0.974609 0.500000
vt 0.974609 0.500000
vt 0.974609 0.500000
vt 0.970703 0.500000
vt 0.974609 0.500000
vt 0.970703 0.500000
vt 0.970703 0.500000
vt 0.970703 0.500000
vt 0.970703 0.500000
vt 0.970703 0.500000
vt 0.970703 0.500000
vt 0.970703 0.500000
vt 0.974609 0.500000
vt 0.974609 0.500000
vt 0.974609 0.500000
vt 0.970703 0.500000
vt 0.974609 0.500000
vt 0.970703 0.500000
vt 0.970703 0.500000
vt 0.970703 0.500000
vt 0.970703 0.500000
vt 0.970703 0.500000
vt 0.970703 0.500000
vt 0.970703 0.500000
vt 0.970703 0.500000
vt 0.970703 0.500000
vt 0.970703 0.500000
vt 0.970703 0.500000
vt 0.970703 0.500000
vt 0.970703 0.500000
vt 0.970703 0.500000
vt 0.974609 0.500000
vt 0.974609 0.500000
vt 0.974609 0.500000
vt 0.974609 0.500000
vt 0.970703 0.500000
vt 0.970703 0.500000
vt 0.970703 0.500000
vt 0.970703 0.500000
vt 0.970703 0.500000
vt 0.974609 0.500000
vt 0.974609 0.500000
vt 0.974609 0.500000
vt 0.974609 0.500000
vt 0.970703 0.500000
vt 0.970703 0.500000
vt 0.970703 0.500000
vt 0.970703 0.500000
vt 0.970703 0.500000
vt 0.970703 0.500000
vt 0.970703 0.500000
vt 0.974609 0.500000
vt 0.974609 0.500000
vt 0.974609 0.500000
vt 0.974609 0.500000
vt 0.970703 0.500000
vt 0.974609 0.500000
vt 0.970703 0.500000
vt 0.974609 0.500000
vt 0.974609 0.500000
vt 0.974609 0.500000
vt 0.974609 0.500000
vt 0.974609 0.500000
vt 0.974609 0.500000
vt 0.970703 0.500000
vt 0.970703 0.500000
vt 0.970703 0.500000
vt 0.974609 0.500000
vt 0.970703 0.500000
vt 0.970703 0.500000
vt 0.970703 0.500000
vt 0.970703 0.500000
vt 0.970703 0.500000
vt 0.970703 0.500000
vt 0.970703 0.500000
vt 0.970703 0.500000
vt 0.974609 0.500000
vt 0.974609 0.500000
vt 0.974609 0.500000
vt 0.970703 0.500000
vt 0.974609 0.500000
vt 0.970703 0.500000
vt 0.970703 0.500000
vt 0.970703 0.500000
vt 0.970703 0.500000
vt 0.970703 0.500000
vt 0.970703 0.500000
vt 0.970703 0.500000
vt 0.970703 0.500000
vt 0.970703 0.500000
vt 0.970703 0.500000
vt 0.970703 0.500000
vt 0.974609 0.500000
vt 0.974609 0.500000
vt 0.974609 0.500000
vt 0.970703 0.500000
vt 0.974609 0.500000
vt 0.970703 0.500000
vt 0.970703 0.500000
vt 0.970703 0.500000
vt 0.970703 0.500000
vt 0.970703 0.500000
vt 0.970703 0.500000
vt 0.970703 0.500000
vt 0.974609 0.500000
vt 0.974609 0.500000
vt 0.974609 0.500000
vt 0.970703 0.500000
vt 0.974609 0.500000
vt 0.970703 0.500000
vt 0.970703 0.500000
vt 0.970703 0.500000
vt 0.970703 0.500000
vt 0.970703 0.500000
vt 0.970703 0.500000
vt 0.970703 0.500000
vt 0.974609 0.500000
vt 0.974609 0.500000
vt 0.974609 0.500000
vt 0.970703 0.500000
vt 0.974609 0.500000
vt 0.970703 0.500000
vt 0.970703 0.500000
vt 0.970703 0.500000
vt 0.970703 0.500000
vt 0.970703 0.500000
vt 0.970703 0.500000
vt 0.970703 0.500000
vt 0.970703 0.500000
vt 0.970703 0.500000
vt 0.970703 0.500000
vt 0.970703 0.500000
vt 0.970703 0.500000
vt 0.970703 0.500000
vt 0.970703 0.500000
vt 0.974609 0.500000
vt 0.974609 0.500000
vt 0.974609 0.500000
vt 0.974609 0.500000
vt 0.974609 0.500000
vt 0.974609 0.500000
vt 0.970703 0.500000
vt 0.974609 0.500000
vt 0.970703 0.500000
vt 0.974609 0.500000
vt 0.970703 0.500000
vt 0.970703 0.500000
vt 0.970703 0.500000
vt 0.970703 0.500000
vt 0.970703 0.500000
vt 0.970703 0.500000
vt 0.970703 0.500000
vt 0.970703 0.500000
vt 0.970703 0.500000
vt 0.970703 0.500000
vt 0.974609 0.500000
vt 0.974609 0.500000
vt 0.974609 0.500000
vt 0.974609 0.500000
vt 0.974609 0.500000
vt 0.974609 0.500000
vt 0.970703 0.500000
vt 0.974609 0.500000
vt 0.974609 0.500000
vt 0.970703 0.500000
vt 0.970703 0.500000
vt 0.970703 0.500000
vt 0.970703 0.500000
vt 0.970703 0.500000
vt 0.970703 0.500000
vt 0.970703 0.500000
vt 0.970703 0.500000
vt 0.970703 0.500000
vt 0.970703 0.500000
vt 0.970703 0.500000
vt 0.970703 0.500000
vt 0.974609 0.500000
vt 0.974609 0.500000
vt 0.974609 0.500000
vt 0.970703 0.500000
vt 0.974609 0.500000
vt 0.970703 0.500000
vt 0.970703 0.500000
vt 0.970703 0.500000
vt 0.970703 0.500000
vt 0.970703 0.500000
vt 0.970703 0.500000
vt 0.970703 0.500000
vt 0.974609 0.500000
vt 0.974609 0.500000
vt 0.974609 0.500000
vt 0.970703 0.500000
vt 0.974609 0.500000
vt 0.970703 0.500000
vt 0.970703 0.500000
vn -1.0000 -0.0000 0.0000
vn 1.0000 0.0000 0.0000
vn 0.0000 0.0000 1.0000
vn -0.0000 0.0000 -1.0000
vn -0.0000 -1.0000 -0.0000
vn 0.0000 1.0000 0.0000
usemtl palette
s 1
f 1/1/1 2/2/1 3/3/1
f 4/4/1 2/2/1 1/1/1
f 5/5/1 1/1/1 3/3/1
f 5/6/1 4/7/1 1/8/1
f 6/9/1 2/2/1 4/4/1
f 6/10/1 4/7/1 5/6/1
f 7/11/1 5/5/1 3/3/1
f 7/11/1 6/9/1 5/5/1
f 8/12/1 2/2/1 6/9/1
f 8/12/1 6/9/1 7/11/1
f 9/13/1 10/14/1 11/15/1
f 12/16/1 10/14/1 9/13/1
f 13/17/1 9/13/1 11/15/1
f 13/18/1 12/19/1 9/20/1
f 14/21/1 10/14/1 12/16/1
f 14/22/1 12/19/1 13/18/1
f 15/23/1 13/17/1 11/15/1
f 15/23/1 14/21/1 13/17/1
f 16/24/1 10/14/1 14/21/1
f 16/24/1 14/21/1 15/23/1
f 17/25/1 18/26/1 19/27/1
f 20/28/1 18/26/1 17/25/1
f 21/29/1 22/30/1 23/31/1
f 24/32/1 22/30/1 21/29/1
f 25/33/1 21/29/1 23/31/1
f 26/34/1 21/29/1 25/33/1
f 27/35/1 24/36/1 21/37/1
f 27/38/1 21/29/1 26/34/1
f 28/39/1 22/30/1 24/32/1
f 28/40/1 24/36/1 27/35/1
f 29/41/1 27/38/1 26/34/1
f 29/41/1 28/39/1 27/38/1
f 30/42/1 28/39/1 29/41/1
f 31/43/1 22/30/1 28/39/1
f 31/43/1 28/39/1 30/42/1
f 32/44/1 33/45/1 34/46/1
f 35/47/1 33/45/1 32/44/1
f 36/48/2 37/49/2 38/50/2
f 38/50/2 37/49/2 39/51/2
f 40/52/2 41/53/2 42/54/2
f 42/54/2 41/53/2 43/55/2
f 40/52/2 42/54/2 44/56/2
f 44/56/2 42/54/2 45/57/2
f 42/58/2 43/59/2 46/60/2
f 45/57/2 42/54/2 46/61/2
f 43/55/2 41/53/2 47/62/2
f 46/60/2 43/59/2 47/63/2
f 45/57/2 46/61/2 48/64/2
f 46/61/2 47/62/2 48/64/2
f 48/64/2 47/62/2 49/65/2
f 47/62/2 41/53/2 50/66/2
f 49/65/2 47/62/2 50/66/2
f 51/67/2 52/68/2 53/69/2
f 53/69/2 52/68/2 54/70/2
f 55/71/2 56/72/2 57/73/2
f 57/73/2 56/72/2 58/74/2
f 55/71/2 57/73/2 59/75/2
f 57/76/2 58/77/2 59/78/2
f 58/74/2 56/72/2 60/79/2
f 59/78/2 58/77/2 60/80/2
f 55/71/2 59/75/2 61/81/2
f 59/75/2 60/79/2 61/81/2
f 60/79/2 56/72/2 62/82/2
f 61/81/2 60/79/2 62/82/2
f 63/83/2 64/84/2 65/85/2
f 65/85/2 64/84/2 66/86/2
f 63/83/2 65/85/2 67/87/2
f 65/88/2 66/89/2 67/90/2
f 66/86/2 64/84/2 68/91/2
f 67/90/2 66/89/2 68/92/2
f 63/83/2 67/87/2 69/93/2
f 67/87/2 68/91/2 69/93/2
f 68/91/2 64/84/2 70/94/2
f 69/93/2 68/91/2 70/94/2
f 71/95/3 72/96/3 73/97/3
f 74/98/3 72/96/3 71/95/3
f 75/99/3 76/100/3 77/101/3
f 78/102/3 76/100/3 75/99/3
f 79/103/3 75/99/3 77/101/3
f 80/104/3 76/100/3 78/102/3
f 81/105/3 79/103/3 77/101/3
f 81/105/3 80/104/3 79/103/3
f 82/106/3 76/100/3 80/104/3
f 82/106/3 80/104/3 81/105/3
f 83/107/3 84/108/3 85/109/3
f 86/110/3 84/108/3 83/107/3
f 87/111/3 88/112/3 89/113/3
f 90/114/3 88/112/3 87/111/3
f 91/115/3 87/111/3 89/113/3
f 91/116/3 90/117/3 87/118/3
f 92/119/3 90/117/3 91/116/3
f 93/120/3 91/115/3 89/113/3
f 93/120/3 92/121/3 91/115/3
f 94/122/3 92/121/3 93/120/3
f 95/123/4 96/124/4 97/125/4
f 97/125/4 96/124/4 98/126/4
f 97/127/4 98/128/4 99/129/4
f 99/129/4 98/128/4 100/130/4
f 95/123/4 97/125/4 101/131/4
f 97/127/4 99/129/4 102/132/4
f 101/131/4 97/125/4 102/133/4
f 102/132/4 99/129/4 103/134/4
f 104/135/4 105/136/4 106/137/4
f 100/130/4 98/128/4 107/138/4
f 104/135/4 106/137/4 108/139/4
f 106/137/4 107/138/4 108/139/4
f 109/140/4 104/141/4 108/142/4
f 107/138/4 98/128/4 110/143/4
f 108/139/4 107/138/4 110/143/4
f 98/126/4 96/124/4 110/144/4
f 109/140/4 108/142/4 111/145/4
f 108/142/4 110/144/4 111/145/4
f 110/144/4 96/124/4 112/146/4
f 111/145/4 110/144/4 112/146/4
f 113/147/4 114/148/4 115/149/4
f 115/149/4 114/148/4 116/150/4
f 113/147/4 115/149/4 117/151/4
f 115/152/4 116/153/4 117/154/4
f 116/150/4 114/148/4 118/155/4
f 117/154/4 116/153/4 118/156/4
f 113/147/4 117/151/4 119/157/4
f 117/151/4 118/155/4 119/157/4
f 118/155/4 114/148/4 120/158/4
f 119/157/4 118/155/4 120/158/4
f 121/159/4 122/160/4 123/161/4
f 123/161/4 122/160/4 124/162/4
f 125/163/4 126/164/4 127/165/4
f 127/165/4 126/164/4 128/166/4
f 125/163/4 127/165/4 129/167/4
f 127/168/4 128/169/4 129/170/4
f 128/166/4 126/164/4 130/171/4
f 129/170/4 128/169/4 130/172/4
f 125/163/4 129/167/4 131/173/4
f 129/167/4 130/171/4 131/173/4
f 130/171/4 126/164/4 132/174/4
f 131/173/4 130/171/4 132/174/4
f 133/175/5 134/176/5 135/177/5
f 136/178/5 134/176/5 133/175/5
f 137/179/5 133/175/5 135/177/5
f 137/180/5 136/181/5 133/182/5
f 138/183/5 134/176/5 136/178/5
f 138/184/5 136/181/5 137/180/5
f 139/185/5 137/179/5 135/177/5
f 139/185/5 138/183/5 137/179/5
f 140/186/5 134/176/5 138/183/5
f 140/186/5 138/183/5 139/185/5
f 141/187/5 142/188/5 143/189/5
f 144/190/5 142/188/5 141/187/5
f 145/191/5 141/187/5 143/189/5
f 145/192/5 144/193/5 141/194/5
f 146/195/5 142/188/5 144/190/5
f 146/196/5 144/193/5 145/192/5
f 147/197/5 145/191/5 143/189/5
f 147/197/5 146/195/5 145/191/5
f 148/198/5 146/195/5 147/197/5
f 149/199/5 146/195/5 148/198/5
f 150/200/5 146/195/5 149/199/5
f 151/201/5 146/195/5 150/200/5
f 152/202/5 142/188/5 146/195/5
f 152/202/5 146/195/5 151/201/5
f 153/203/5 154/204/5 155/205/5
f 156/206/5 154/204/5 153/203/5
f 157/207/5 158/208/5 159/209/5
f 160/210/5 158/208/5 157/207/5
f 161/211/5 156/212/5 153/213/5
f 162/214/5 160/215/5 157/216/5
f 163/217/5 153/203/5 155/205/5
f 163/218/5 162/214/5 161/211/5
f 163/218/5 161/211/5 153/213/5
f 164/219/5 158/208/5 160/210/5
f 164/220/5 162/214/5 163/218/5
f 164/220/5 160/215/5 162/214/5
f 165/221/5 163/217/5 155/205/5
f 165/221/5 164/219/5 163/217/5
f 166/222/5 158/208/5 164/219/5
f 166/222/5 164/219/5 165/221/5
f 167/223/5 168/224/5 169/225/5
f 170/226/5 168/224/5 167/223/5
f 171/227/6 172/228/6 173/229/6
f 173/229/6 172/228/6 174/230/6
f 173/231/6 174/232/6 175/233/6
f 175/233/6 174/232/6 176/234/6
f 173/231/6 175/233/6 177/235/6
f 176/234/6 174/232/6 178/236/6
f 171/227/6 173/229/6 179/237/6
f 177/235/6 178/236/6 179/238/6
f 173/231/6 177/235/6 179/238/6
f 178/236/6 174/232/6 180/239/6
f 179/238/6 178/236/6 180/239/6
f 174/230/6 172/228/6 180/240/6
f 171/227/6 179/237/6 181/241/6
f 179/237/6 180/240/6 181/241/6
f 180/240/6 172/228/6 182/242/6
f 181/241/6 180/240/6 182/242/6
f 183/243/6 184/244/6 185/245/6
f 185/245/6 184/244/6 186/246/6
f 187/247/6 188/248/6 189/249/6
f 189/249/6 188/248/6 190/250/6
f 187/247/6 189/249/6 191/251/6
f 189/252/6 190/253/6 191/254/6
f 190/250/6 188/248/6 192/255/6
f 191/254/6 190/253/6 192/256/6
f 187/247/6 191/251/6 193/257/6
f 191/251/6 192/255/6 193/257/6
f 192/255/6 188/248/6 194/258/6
f 193/257/6 192/255/6 194/258/6
f 195/259/6 196/260/6 197/261/6
f 197/261/6 196/260/6 198/262/6
f 195/259/6 197/261/6 199/263/6
f 197/264/6 198/265/6 199/266/6
f 198/262/6 196/260/6 200/267/6
f 199/266/6 198/265/6 200/268/6
f 195/259/6 199/263/6 201/269/6
f 199/263/6 200/267/6 201/269/6
f 200/267/6 196/260/6 202/270/6
f 201/269/6 200/267/6 202/270/6
