# MagicaVoxel @ Ephtracy

# group
g Shelf

# material
mtllib Shelf.mtl
usemtl palette

# normals
vn -1 0 0
vn 1 0 0
vn 0 0 1
vn 0 0 -1
vn 0 -1 0
vn 0 1 0

# texcoords
vt 0.970703 0.5
vt 0.974609 0.5

# verts
v -28 0 14
v -28 0 -14
v -28 1 13
v -28 1 -13
v -28 52 13
v -28 52 -13
v -28 53 14
v -28 53 -14
v -5 0 14
v -5 0 -14
v -5 1 13
v -5 1 -13
v -5 4 14
v -5 4 13
v -5 4 -13
v -5 4 -14
v -5 5 14
v -5 5 13
v -5 5 -12
v -5 16 14
v -5 16 13
v -5 16 -12
v -5 17 14
v -5 17 13
v -5 17 -12
v -5 28 14
v -5 28 13
v -5 28 -12
v -5 29 14
v -5 29 13
v -5 29 -12
v -5 40 14
v -5 40 13
v -5 40 -12
v -5 41 14
v -5 41 13
v -5 41 -12
v -5 52 14
v -5 52 13
v -5 52 -12
v -27 0 14
v -27 0 -14
v -27 1 13
v -27 1 -13
v -27 4 14
v -27 4 13
v -27 4 -13
v -27 4 -14
v -27 5 14
v -27 5 13
v -27 5 -12
v -27 16 14
v -27 16 13
v -27 16 -12
v -27 17 14
v -27 17 13
v -27 17 -12
v -27 28 14
v -27 28 13
v -27 28 -12
v -27 29 14
v -27 29 13
v -27 29 -12
v -27 40 14
v -27 40 13
v -27 40 -12
v -27 41 14
v -27 41 13
v -27 41 -12
v -27 52 14
v -27 52 13
v -27 52 -12
v -4 0 14
v -4 0 -14
v -4 1 13
v -4 1 -13
v -4 52 13
v -4 52 -13
v -4 53 14
v -4 53 -14
v -28 0 14
v -28 53 14
v -27 0 14
v -27 4 14
v -27 5 14
v -27 16 14
v -27 17 14
v -27 28 14
v -27 29 14
v -27 40 14
v -27 41 14
v -27 52 14
v -5 0 14
v -5 4 14
v -5 5 14
v -5 16 14
v -5 17 14
v -5 28 14
v -5 29 14
v -5 40 14
v -5 41 14
v -5 52 14
v -4 0 14
v -4 53 14
v -27 5 -12
v -27 16 -12
v -27 17 -12
v -27 28 -12
v -27 29 -12
v -27 40 -12
v -27 41 -12
v -27 52 -12
v -26 6 -12
v -26 15 -12
v -26 18 -12
v -26 27 -12
v -26 30 -12
v -26 39 -12
v -26 42 -12
v -26 51 -12
v -6 6 -12
v -6 15 -12
v -6 18 -12
v -6 27 -12
v -6 30 -12
v -6 39 -12
v -6 42 -12
v -6 51 -12
v -5 5 -12
v -5 16 -12
v -5 17 -12
v -5 28 -12
v -5 29 -12
v -5 40 -12
v -5 41 -12
v -5 52 -12
v -28 0 -14
v -28 53 -14
v -27 0 -14
v -27 4 -14
v -27 5 -14
v -27 52 -14
v -5 0 -14
v -5 4 -14
v -5 5 -14
v -5 52 -14
v -4 0 -14
v -4 53 -14
v -28 0 14
v -27 0 14
v -5 0 14
v -4 0 14
v -28 0 -14
v -27 0 -14
v -5 0 -14
v -4 0 -14
v -27 4 14
v -5 4 14
v -27 4 13
v -5 4 13
v -27 4 -13
v -5 4 -13
v -27 4 -14
v -5 4 -14
v -27 16 14
v -5 16 14
v -27 16 13
v -5 16 13
v -27 16 -12
v -5 16 -12
v -27 28 14
v -5 28 14
v -27 28 13
v -5 28 13
v -27 28 -12
v -5 28 -12
v -27 40 14
v -5 40 14
v -27 40 13
v -5 40 13
v -27 40 -12
v -5 40 -12
v -27 52 14
v -5 52 14
v -27 52 13
v -5 52 13
v -27 52 -12
v -5 52 -12
v -27 5 14
v -5 5 14
v -27 5 13
v -5 5 13
v -27 5 -12
v -5 5 -12
v -27 17 14
v -5 17 14
v -27 17 13
v -5 17 13
v -27 17 -12
v -5 17 -12
v -27 29 14
v -5 29 14
v -27 29 13
v -5 29 13
v -27 29 -12
v -5 29 -12
v -27 41 14
v -5 41 14
v -27 41 13
v -5 41 13
v -27 41 -12
v -5 41 -12
v -28 53 14
v -4 53 14
v -27 53 13
v -5 53 13
v -27 53 -13
v -5 53 -13
v -28 53 -14
v -4 53 -14

# faces
f 3/1/1 2/1/1 1/1/1
f 4/1/1 2/1/1 3/1/1
f 5/1/1 3/1/1 1/1/1
f 5/2/1 4/2/1 3/2/1
f 6/1/1 2/1/1 4/1/1
f 6/2/1 4/2/1 5/2/1
f 7/1/1 5/1/1 1/1/1
f 7/1/1 6/1/1 5/1/1
f 8/1/1 2/1/1 6/1/1
f 8/1/1 6/1/1 7/1/1
f 11/1/1 10/1/1 9/1/1
f 12/1/1 10/1/1 11/1/1
f 13/1/1 11/1/1 9/1/1
f 14/2/1 12/2/1 11/2/1
f 14/1/1 11/1/1 13/1/1
f 15/1/1 10/1/1 12/1/1
f 15/2/1 12/2/1 14/2/1
f 16/1/1 10/1/1 15/1/1
f 20/1/1 18/1/1 17/1/1
f 21/2/1 19/2/1 18/2/1
f 21/1/1 18/1/1 20/1/1
f 22/2/1 19/2/1 21/2/1
f 26/1/1 24/1/1 23/1/1
f 27/2/1 25/2/1 24/2/1
f 27/1/1 24/1/1 26/1/1
f 28/2/1 25/2/1 27/2/1
f 32/1/1 30/1/1 29/1/1
f 33/2/1 31/2/1 30/2/1
f 33/1/1 30/1/1 32/1/1
f 34/2/1 31/2/1 33/2/1
f 38/1/1 36/1/1 35/1/1
f 39/2/1 37/2/1 36/2/1
f 39/1/1 36/1/1 38/1/1
f 40/2/1 37/2/1 39/2/1
f 41/1/2 42/1/2 43/1/2
f 43/1/2 42/1/2 44/1/2
f 41/1/2 43/1/2 45/1/2
f 43/2/2 44/2/2 46/2/2
f 45/1/2 43/1/2 46/1/2
f 44/1/2 42/1/2 47/1/2
f 46/2/2 44/2/2 47/2/2
f 47/1/2 42/1/2 48/1/2
f 49/1/2 50/1/2 52/1/2
f 50/2/2 51/2/2 53/2/2
f 52/1/2 50/1/2 53/1/2
f 53/2/2 51/2/2 54/2/2
f 55/1/2 56/1/2 58/1/2
f 56/2/2 57/2/2 59/2/2
f 58/1/2 56/1/2 59/1/2
f 59/2/2 57/2/2 60/2/2
f 61/1/2 62/1/2 64/1/2
f 62/2/2 63/2/2 65/2/2
f 64/1/2 62/1/2 65/1/2
f 65/2/2 63/2/2 66/2/2
f 67/1/2 68/1/2 70/1/2
f 68/2/2 69/2/2 71/2/2
f 70/1/2 68/1/2 71/1/2
f 71/2/2 69/2/2 72/2/2
f 73/1/2 74/1/2 75/1/2
f 75/1/2 74/1/2 76/1/2
f 73/1/2 75/1/2 77/1/2
f 75/2/2 76/2/2 77/2/2
f 76/1/2 74/1/2 78/1/2
f 77/2/2 76/2/2 78/2/2
f 73/1/2 77/1/2 79/1/2
f 77/1/2 78/1/2 79/1/2
f 78/1/2 74/1/2 80/1/2
f 79/1/2 78/1/2 80/1/2
f 83/1/3 82/1/3 81/1/3
f 84/1/3 82/1/3 83/1/3
f 85/1/3 82/1/3 84/1/3
f 86/1/3 82/1/3 85/1/3
f 87/1/3 82/1/3 86/1/3
f 88/1/3 82/1/3 87/1/3
f 89/1/3 82/1/3 88/1/3
f 90/1/3 82/1/3 89/1/3
f 91/1/3 82/1/3 90/1/3
f 92/1/3 82/1/3 91/1/3
f 94/1/3 85/1/3 84/1/3
f 95/1/3 85/1/3 94/1/3
f 96/1/3 87/1/3 86/1/3
f 97/1/3 87/1/3 96/1/3
f 98/1/3 89/1/3 88/1/3
f 99/1/3 89/1/3 98/1/3
f 100/1/3 91/1/3 90/1/3
f 101/1/3 91/1/3 100/1/3
f 102/1/3 82/1/3 92/1/3
f 103/1/3 101/1/3 100/1/3
f 103/1/3 102/1/3 101/1/3
f 103/1/3 97/1/3 96/1/3
f 103/1/3 99/1/3 98/1/3
f 103/1/3 100/1/3 99/1/3
f 103/1/3 95/1/3 94/1/3
f 103/1/3 98/1/3 97/1/3
f 103/1/3 94/1/3 93/1/3
f 103/1/3 96/1/3 95/1/3
f 104/1/3 82/1/3 102/1/3
f 104/1/3 102/1/3 103/1/3
f 113/1/3 106/1/3 105/1/3
f 114/1/3 106/1/3 113/1/3
f 115/1/3 108/1/3 107/1/3
f 116/1/3 108/1/3 115/1/3
f 117/1/3 110/1/3 109/1/3
f 118/1/3 110/1/3 117/1/3
f 119/1/3 112/1/3 111/1/3
f 120/1/3 112/1/3 119/1/3
f 121/1/3 113/1/3 105/1/3
f 121/2/3 114/2/3 113/2/3
f 122/1/3 106/1/3 114/1/3
f 122/2/3 114/2/3 121/2/3
f 123/1/3 115/1/3 107/1/3
f 123/2/3 116/2/3 115/2/3
f 124/1/3 108/1/3 116/1/3
f 124/2/3 116/2/3 123/2/3
f 125/1/3 117/1/3 109/1/3
f 125/2/3 118/2/3 117/2/3
f 126/1/3 110/1/3 118/1/3
f 126/2/3 118/2/3 125/2/3
f 127/2/3 120/2/3 119/2/3
f 127/1/3 119/1/3 111/1/3
f 128/1/3 112/1/3 120/1/3
f 128/2/3 120/2/3 127/2/3
f 129/1/3 121/1/3 105/1/3
f 129/1/3 122/1/3 121/1/3
f 130/1/3 106/1/3 122/1/3
f 130/1/3 122/1/3 129/1/3
f 131/1/3 123/1/3 107/1/3
f 131/1/3 124/1/3 123/1/3
f 132/1/3 108/1/3 124/1/3
f 132/1/3 124/1/3 131/1/3
f 133/1/3 125/1/3 109/1/3
f 133/1/3 126/1/3 125/1/3
f 134/1/3 110/1/3 126/1/3
f 134/1/3 126/1/3 133/1/3
f 135/1/3 127/1/3 111/1/3
f 135/1/3 128/1/3 127/1/3
f 136/1/3 112/1/3 128/1/3
f 136/1/3 128/1/3 135/1/3
f 137/1/4 138/1/4 139/1/4
f 139/1/4 138/1/4 140/1/4
f 140/1/4 138/1/4 141/1/4
f 141/1/4 138/1/4 142/1/4
f 140/1/4 141/1/4 144/1/4
f 141/2/4 142/2/4 145/2/4
f 144/1/4 141/1/4 145/1/4
f 142/1/4 138/1/4 146/1/4
f 145/2/4 142/2/4 146/2/4
f 144/1/4 145/1/4 147/1/4
f 143/1/4 144/1/4 147/1/4
f 145/1/4 146/1/4 147/1/4
f 146/1/4 138/1/4 148/1/4
f 147/1/4 146/1/4 148/1/4
f 153/1/5 150/1/5 149/1/5
f 154/1/5 150/1/5 153/1/5
f 155/1/5 152/1/5 151/1/5
f 156/1/5 152/1/5 155/1/5
f 159/1/5 158/1/5 157/1/5
f 160/1/5 158/1/5 159/1/5
f 161/2/5 160/2/5 159/2/5
f 162/2/5 160/2/5 161/2/5
f 163/1/5 162/1/5 161/1/5
f 164/1/5 162/1/5 163/1/5
f 167/1/5 166/1/5 165/1/5
f 168/1/5 166/1/5 167/1/5
f 169/2/5 168/2/5 167/2/5
f 170/2/5 168/2/5 169/2/5
f 173/1/5 172/1/5 171/1/5
f 174/1/5 172/1/5 173/1/5
f 175/2/5 174/2/5 173/2/5
f 176/2/5 174/2/5 175/2/5
f 179/1/5 178/1/5 177/1/5
f 180/1/5 178/1/5 179/1/5
f 181/2/5 180/2/5 179/2/5
f 182/2/5 180/2/5 181/2/5
f 185/1/5 184/1/5 183/1/5
f 186/1/5 184/1/5 185/1/5
f 187/2/5 186/2/5 185/2/5
f 188/2/5 186/2/5 187/2/5
f 189/1/6 190/1/6 191/1/6
f 191/1/6 190/1/6 192/1/6
f 191/2/6 192/2/6 193/2/6
f 193/2/6 192/2/6 194/2/6
f 195/1/6 196/1/6 197/1/6
f 197/1/6 196/1/6 198/1/6
f 197/2/6 198/2/6 199/2/6
f 199/2/6 198/2/6 200/2/6
f 201/1/6 202/1/6 203/1/6
f 203/1/6 202/1/6 204/1/6
f 203/2/6 204/2/6 205/2/6
f 205/2/6 204/2/6 206/2/6
f 207/1/6 208/1/6 209/1/6
f 209/1/6 208/1/6 210/1/6
f 209/2/6 210/2/6 211/2/6
f 211/2/6 210/2/6 212/2/6
f 213/1/6 214/1/6 215/1/6
f 215/1/6 214/1/6 216/1/6
f 213/1/6 215/1/6 217/1/6
f 215/2/6 216/2/6 217/2/6
f 216/1/6 214/1/6 218/1/6
f 217/2/6 216/2/6 218/2/6
f 213/1/6 217/1/6 219/1/6
f 217/1/6 218/1/6 219/1/6
f 218/1/6 214/1/6 220/1/6
f 219/1/6 218/1/6 220/1/6
