# MagicaVoxel @ Ephtracy

# group
g Computer

# material
mtllib Computer.mtl
usemtl palette

# normals
vn -1 0 0
vn 1 0 0
vn 0 0 1
vn 0 0 -1
vn 0 -1 0
vn 0 1 0

# texcoords
vt 0.970703 0.5
vt 0.974609 0.5

# verts
v -15 4 10
v -15 4 4
v -15 5 9
v -15 5 5
v -15 27 9
v -15 27 5
v -15 28 10
v -15 28 4
v -11 1 12
v -11 1 -12
v -11 2 12
v -11 2 -12
v -11 6 4
v -11 6 -12
v -11 7 3
v -11 7 -11
v -11 21 3
v -11 21 -11
v -11 22 4
v -11 22 -12
v -9 2 4
v -9 2 -10
v -9 3 3
v -9 3 -9
v -9 4 4
v -9 5 4
v -9 5 3
v -9 5 -9
v -9 6 4
v -9 6 -10
v 14 5 10
v 14 5 9
v 14 27 10
v 14 27 9
v -14 5 10
v -14 5 9
v -14 27 10
v -14 27 9
v 9 2 4
v 9 2 -10
v 9 3 3
v 9 3 -9
v 9 4 4
v 9 5 4
v 9 5 3
v 9 5 -9
v 9 6 4
v 9 6 -10
v 11 1 12
v 11 1 -12
v 11 2 12
v 11 2 -12
v 11 6 4
v 11 6 -12
v 11 7 3
v 11 7 -11
v 11 21 3
v 11 21 -11
v 11 22 4
v 11 22 -12
v 15 4 10
v 15 4 4
v 15 5 9
v 15 5 5
v 15 27 9
v 15 27 5
v 15 28 10
v 15 28 4
v -11 1 12
v -11 2 12
v 11 1 12
v 11 2 12
v -15 4 10
v -15 28 10
v -14 5 10
v -14 27 10
v 14 5 10
v 14 27 10
v 15 4 10
v 15 28 10
v -14 5 9
v -14 27 9
v 14 5 9
v 14 27 9
v -9 2 4
v -9 4 4
v -8 3 4
v -8 4 4
v 8 3 4
v 8 4 4
v 9 2 4
v 9 4 4
v -15 4 4
v -15 28 4
v -14 5 4
v -14 27 4
v -11 6 4
v -11 22 4
v -10 6 4
v -9 4 4
v -9 5 4
v -9 6 4
v 9 4 4
v 9 5 4
v 9 6 4
v 10 6 4
v 11 6 4
v 11 22 4
v 14 5 4
v 14 27 4
v 15 4 4
v 15 28 4
v -9 2 -10
v -9 6 -10
v -8 3 -10
v -8 5 -10
v 8 3 -10
v 8 5 -10
v 9 2 -10
v 9 6 -10
v -11 1 -12
v -11 2 -12
v -11 6 -12
v -11 22 -12
v -10 7 -12
v -10 21 -12
v 10 7 -12
v 10 21 -12
v 11 1 -12
v 11 2 -12
v 11 6 -12
v 11 22 -12
v -11 1 12
v 11 1 12
v -10 1 11
v 10 1 11
v -10 1 -11
v 10 1 -11
v -11 1 -12
v 11 1 -12
v -15 4 10
v 15 4 10
v -14 4 9
v 14 4 9
v -14 4 5
v 14 4 5
v -15 4 4
v -9 4 4
v -8 4 4
v 8 4 4
v 9 4 4
v 15 4 4
v -11 6 4
v -10 6 4
v -9 6 4
v 9 6 4
v 10 6 4
v 11 6 4
v -9 6 -10
v 9 6 -10
v -10 6 -11
v 10 6 -11
v -11 6 -12
v 11 6 -12
v -14 27 10
v 14 27 10
v -14 27 9
v 14 27 9
v -11 2 12
v 11 2 12
v -10 2 11
v 10 2 11
v -9 2 4
v 9 2 4
v -9 2 -10
v 9 2 -10
v -10 2 -11
v 10 2 -11
v -11 2 -12
v 11 2 -12
v -14 5 10
v 14 5 10
v -14 5 9
v 14 5 9
v -11 22 4
v 11 22 4
v -10 22 3
v 10 22 3
v -10 22 -11
v 10 22 -11
v -11 22 -12
v 11 22 -12
v -15 28 10
v 15 28 10
v -14 28 9
v 14 28 9
v -14 28 5
v 14 28 5
v -15 28 4
v 15 28 4

# faces
f 3/1/1 2/1/1 1/1/1
f 4/1/1 2/1/1 3/1/1
f 5/1/1 3/1/1 1/1/1
f 5/2/1 4/2/1 3/2/1
f 6/1/1 2/1/1 4/1/1
f 6/2/1 4/2/1 5/2/1
f 7/1/1 5/1/1 1/1/1
f 7/1/1 6/1/1 5/1/1
f 8/1/1 2/1/1 6/1/1
f 8/1/1 6/1/1 7/1/1
f 11/1/1 10/1/1 9/1/1
f 12/1/1 10/1/1 11/1/1
f 15/1/1 14/1/1 13/1/1
f 16/1/1 14/1/1 15/1/1
f 17/1/1 15/1/1 13/1/1
f 17/2/1 16/2/1 15/2/1
f 18/1/1 14/1/1 16/1/1
f 18/2/1 16/2/1 17/2/1
f 19/1/1 17/1/1 13/1/1
f 19/1/1 18/1/1 17/1/1
f 20/1/1 14/1/1 18/1/1
f 20/1/1 18/1/1 19/1/1
f 23/1/1 22/1/1 21/1/1
f 24/1/1 22/1/1 23/1/1
f 25/1/1 23/1/1 21/1/1
f 26/1/1 23/1/1 25/1/1
f 27/2/1 24/2/1 23/2/1
f 27/1/1 23/1/1 26/1/1
f 28/1/1 22/1/1 24/1/1
f 28/2/1 24/2/1 27/2/1
f 29/1/1 27/1/1 26/1/1
f 29/1/1 28/1/1 27/1/1
f 30/1/1 22/1/1 28/1/1
f 30/1/1 28/1/1 29/1/1
f 33/1/1 32/1/1 31/1/1
f 34/1/1 32/1/1 33/1/1
f 35/1/2 36/1/2 37/1/2
f 37/1/2 36/1/2 38/1/2
f 39/1/2 40/1/2 41/1/2
f 41/1/2 40/1/2 42/1/2
f 39/1/2 41/1/2 43/1/2
f 43/1/2 41/1/2 44/1/2
f 41/2/2 42/2/2 45/2/2
f 44/1/2 41/1/2 45/1/2
f 42/1/2 40/1/2 46/1/2
f 45/2/2 42/2/2 46/2/2
f 44/1/2 45/1/2 47/1/2
f 45/1/2 46/1/2 47/1/2
f 46/1/2 40/1/2 48/1/2
f 47/1/2 46/1/2 48/1/2
f 49/1/2 50/1/2 51/1/2
f 51/1/2 50/1/2 52/1/2
f 53/1/2 54/1/2 55/1/2
f 55/1/2 54/1/2 56/1/2
f 53/1/2 55/1/2 57/1/2
f 55/2/2 56/2/2 57/2/2
f 56/1/2 54/1/2 58/1/2
f 57/2/2 56/2/2 58/2/2
f 53/1/2 57/1/2 59/1/2
f 57/1/2 58/1/2 59/1/2
f 58/1/2 54/1/2 60/1/2
f 59/1/2 58/1/2 60/1/2
f 61/1/2 62/1/2 63/1/2
f 63/1/2 62/1/2 64/1/2
f 61/1/2 63/1/2 65/1/2
f 63/2/2 64/2/2 65/2/2
f 64/1/2 62/1/2 66/1/2
f 65/2/2 64/2/2 66/2/2
f 61/1/2 65/1/2 67/1/2
f 65/1/2 66/1/2 67/1/2
f 66/1/2 62/1/2 68/1/2
f 67/1/2 66/1/2 68/1/2
f 71/1/3 70/1/3 69/1/3
f 72/1/3 70/1/3 71/1/3
f 75/1/3 74/1/3 73/1/3
f 76/1/3 74/1/3 75/1/3
f 77/1/3 75/1/3 73/1/3
f 78/1/3 74/1/3 76/1/3
f 79/1/3 77/1/3 73/1/3
f 79/1/3 78/1/3 77/1/3
f 80/1/3 74/1/3 78/1/3
f 80/1/3 78/1/3 79/1/3
f 83/2/3 82/2/3 81/2/3
f 84/2/3 82/2/3 83/2/3
f 87/1/3 86/1/3 85/1/3
f 88/1/3 86/1/3 87/1/3
f 89/1/3 87/1/3 85/1/3
f 89/2/3 88/2/3 87/2/3
f 90/2/3 88/2/3 89/2/3
f 91/1/3 89/1/3 85/1/3
f 91/1/3 90/1/3 89/1/3
f 92/1/3 90/1/3 91/1/3
f 93/1/4 94/1/4 95/1/4
f 95/1/4 94/1/4 96/1/4
f 95/2/4 96/2/4 97/2/4
f 97/2/4 96/2/4 98/2/4
f 95/2/4 97/2/4 99/2/4
f 93/1/4 95/1/4 100/1/4
f 95/2/4 99/2/4 101/2/4
f 100/1/4 95/1/4 101/1/4
f 101/2/4 99/2/4 102/2/4
f 104/2/4 105/2/4 106/2/4
f 104/2/4 106/2/4 107/2/4
f 98/2/4 96/2/4 108/2/4
f 104/2/4 107/2/4 109/2/4
f 107/2/4 108/2/4 109/2/4
f 103/1/4 104/1/4 109/1/4
f 108/2/4 96/2/4 110/2/4
f 109/2/4 108/2/4 110/2/4
f 96/1/4 94/1/4 110/1/4
f 103/1/4 109/1/4 111/1/4
f 109/1/4 110/1/4 111/1/4
f 110/1/4 94/1/4 112/1/4
f 111/1/4 110/1/4 112/1/4
f 113/1/4 114/1/4 115/1/4
f 115/1/4 114/1/4 116/1/4
f 113/1/4 115/1/4 117/1/4
f 115/2/4 116/2/4 117/2/4
f 116/1/4 114/1/4 118/1/4
f 117/2/4 116/2/4 118/2/4
f 113/1/4 117/1/4 119/1/4
f 117/1/4 118/1/4 119/1/4
f 118/1/4 114/1/4 120/1/4
f 119/1/4 118/1/4 120/1/4
f 123/1/4 124/1/4 125/1/4
f 125/1/4 124/1/4 126/1/4
f 123/1/4 125/1/4 127/1/4
f 125/2/4 126/2/4 127/2/4
f 126/1/4 124/1/4 128/1/4
f 127/2/4 126/2/4 128/2/4
f 121/1/4 122/1/4 129/1/4
f 129/1/4 122/1/4 130/1/4
f 123/1/4 127/1/4 131/1/4
f 127/1/4 128/1/4 131/1/4
f 128/1/4 124/1/4 132/1/4
f 131/1/4 128/1/4 132/1/4
f 135/1/5 134/1/5 133/1/5
f 136/1/5 134/1/5 135/1/5
f 137/1/5 135/1/5 133/1/5
f 137/2/5 136/2/5 135/2/5
f 138/1/5 134/1/5 136/1/5
f 138/2/5 136/2/5 137/2/5
f 139/1/5 137/1/5 133/1/5
f 139/1/5 138/1/5 137/1/5
f 140/1/5 134/1/5 138/1/5
f 140/1/5 138/1/5 139/1/5
f 143/1/5 142/1/5 141/1/5
f 144/1/5 142/1/5 143/1/5
f 145/1/5 143/1/5 141/1/5
f 145/2/5 144/2/5 143/2/5
f 146/1/5 142/1/5 144/1/5
f 146/2/5 144/2/5 145/2/5
f 147/1/5 145/1/5 141/1/5
f 147/1/5 146/1/5 145/1/5
f 148/1/5 146/1/5 147/1/5
f 149/1/5 146/1/5 148/1/5
f 150/1/5 146/1/5 149/1/5
f 151/1/5 146/1/5 150/1/5
f 152/1/5 142/1/5 146/1/5
f 152/1/5 146/1/5 151/1/5
f 159/2/5 155/2/5 154/2/5
f 160/2/5 157/2/5 156/2/5
f 161/1/5 154/1/5 153/1/5
f 161/2/5 160/2/5 159/2/5
f 161/2/5 159/2/5 154/2/5
f 162/2/5 157/2/5 160/2/5
f 162/2/5 160/2/5 161/2/5
f 162/1/5 158/1/5 157/1/5
f 163/1/5 161/1/5 153/1/5
f 163/1/5 162/1/5 161/1/5
f 164/1/5 158/1/5 162/1/5
f 164/1/5 162/1/5 163/1/5
f 167/1/5 166/1/5 165/1/5
f 168/1/5 166/1/5 167/1/5
f 169/1/6 170/1/6 171/1/6
f 171/1/6 170/1/6 172/1/6
f 171/2/6 172/2/6 173/2/6
f 173/2/6 172/2/6 174/2/6
f 171/2/6 173/2/6 175/2/6
f 174/2/6 172/2/6 176/2/6
f 169/1/6 171/1/6 177/1/6
f 175/2/6 176/2/6 177/2/6
f 171/2/6 175/2/6 177/2/6
f 176/2/6 172/2/6 178/2/6
f 177/2/6 176/2/6 178/2/6
f 172/1/6 170/1/6 178/1/6
f 169/1/6 177/1/6 179/1/6
f 177/1/6 178/1/6 179/1/6
f 178/1/6 170/1/6 180/1/6
f 179/1/6 178/1/6 180/1/6
f 181/1/6 182/1/6 183/1/6
f 183/1/6 182/1/6 184/1/6
f 185/1/6 186/1/6 187/1/6
f 187/1/6 186/1/6 188/1/6
f 185/1/6 187/1/6 189/1/6
f 187/2/6 188/2/6 189/2/6
f 188/1/6 186/1/6 190/1/6
f 189/2/6 188/2/6 190/2/6
f 185/1/6 189/1/6 191/1/6
f 189/1/6 190/1/6 191/1/6
f 190/1/6 186/1/6 192/1/6
f 191/1/6 190/1/6 192/1/6
f 193/1/6 194/1/6 195/1/6
f 195/1/6 194/1/6 196/1/6
f 193/1/6 195/1/6 197/1/6
f 195/2/6 196/2/6 197/2/6
f 196/1/6 194/1/6 198/1/6
f 197/2/6 196/2/6 198/2/6
f 193/1/6 197/1/6 199/1/6
f 197/1/6 198/1/6 199/1/6
f 198/1/6 194/1/6 200/1/6
f 199/1/6 198/1/6 200/1/6
