# Blender v2.81 (sub 16) OBJ File: ''
# www.blender.org
mtllib Note.mtl
o ObjObject
v -0.050000 -0.692859 0.535714
v -0.050000 -0.792858 -0.664286
v -0.050000 -0.692858 -0.564286
v -0.050000 -0.592858 0.435714
v -0.050000 -0.592858 0.235714
v -0.050000 -0.592858 0.035714
v -0.050000 -0.592858 -0.464286
v -0.050000 -0.492858 0.435714
v -0.050000 -0.492858 0.235714
v -0.050000 -0.492858 0.035714
v -0.050000 -0.492858 -0.464286
v -0.050000 -0.392858 0.435714
v -0.050000 -0.392858 -0.464286
v -0.050000 -0.292858 0.435714
v -0.050000 -0.292858 -0.464286
v -0.050000 -0.192859 0.435714
v -0.050000 -0.192858 -0.164286
v -0.050000 -0.192858 -0.364286
v -0.050000 -0.192858 -0.464286
v -0.050000 -0.092858 0.435714
v -0.050000 -0.092858 -0.164286
v -0.050000 -0.092858 -0.364286
v -0.050000 -0.092858 -0.464286
v -0.050000 0.007142 0.435714
v -0.050000 0.007142 0.135714
v -0.050000 0.007142 -0.064286
v -0.050000 0.007142 -0.464286
v -0.050000 0.107142 0.435714
v -0.050000 0.107142 0.135714
v -0.050000 0.107142 -0.064286
v -0.050000 0.107142 -0.464286
v -0.050000 0.207142 0.335714
v -0.050000 0.207142 -0.464286
v -0.050000 0.307141 0.335714
v -0.050000 0.307142 -0.464286
v -0.050000 0.407142 0.435714
v -0.050000 0.407142 0.135714
v -0.050000 0.507142 0.435715
v -0.050000 0.507142 0.135715
v -0.050000 0.607142 0.435715
v -0.050000 0.607142 -0.464286
v -0.050000 0.707142 0.435715
v -0.050000 0.707142 -0.464285
v -0.050000 0.807141 0.535715
v -0.050000 0.807142 -0.564286
v -0.050000 0.907142 -0.664285
v 0.050000 -0.792858 -0.664286
v 0.050000 -0.692859 0.535714
v 0.050000 -0.692858 -0.564286
v 0.050000 -0.592858 0.435714
v 0.050000 -0.592858 0.235714
v 0.050000 -0.592858 0.035714
v 0.050000 -0.592858 -0.464286
v 0.050000 -0.492858 0.435714
v 0.050000 -0.492858 0.235714
v 0.050000 -0.492858 0.035714
v 0.050000 -0.492858 -0.464286
v 0.050000 -0.392858 0.435714
v 0.050000 -0.392858 -0.464286
v 0.050000 -0.292858 0.435714
v 0.050000 -0.292858 -0.464286
v 0.050000 -0.192859 0.435714
v 0.050000 -0.192858 -0.164286
v 0.050000 -0.192858 -0.364286
v 0.050000 -0.192858 -0.464286
v 0.050000 -0.092858 0.435714
v 0.050000 -0.092858 -0.164286
v 0.050000 -0.092858 -0.364286
v 0.050000 -0.092858 -0.464286
v 0.050000 0.007142 0.435714
v 0.050000 0.007142 0.135714
v 0.050000 0.007142 -0.064286
v 0.050000 0.007142 -0.464286
v 0.050000 0.107142 0.435714
v 0.050000 0.107142 0.135714
v 0.050000 0.107142 -0.064286
v 0.050000 0.107142 -0.464286
v 0.050000 0.207142 0.335714
v 0.050000 0.207142 -0.464286
v 0.050000 0.307141 0.335714
v 0.050000 0.307142 -0.464286
v 0.050000 0.407142 0.435714
v 0.050000 0.407142 0.135714
v 0.050000 0.507142 0.435715
v 0.050000 0.507142 0.135715
v 0.050000 0.607142 0.435715
v 0.050000 0.607142 -0.464286
v 0.050000 0.707142 0.435715
v 0.050000 0.707142 -0.464285
v 0.050000 0.807141 0.535715
v 0.050000 0.807142 -0.564286
v 0.050000 0.907142 0.635715
v 0.050000 -0.792858 0.635714
v -0.050000 -0.792858 0.635714
v -0.050000 0.907142 0.635715
v 0.050000 0.907142 -0.664285
vt 0.970703 0.500000
vt 0.970703 0.500000
vt 0.970703 0.500000
vt 0.970703 0.500000
vt 0.974609 0.500000
vt 0.974609 0.500000
vt 0.974609 0.500000
vt 0.974609 0.500000
vt 0.974609 0.500000
vt 0.974609 0.500000
vt 0.974609 0.500000
vt 0.970703 0.500000
vt 0.970703 0.500000
vt 0.970703 0.500000
vt 0.974609 0.500000
vt 0.970703 0.500000
vt 0.970703 0.500000
vt 0.970703 0.500000
vt 0.970703 0.500000
vt 0.974609 0.500000
vt 0.974609 0.500000
vt 0.970703 0.500000
vt 0.974609 0.500000
vt 0.974609 0.500000
vt 0.974609 0.500000
vt 0.970703 0.500000
vt 0.970703 0.500000
vt 0.970703 0.500000
vt 0.974609 0.500000
vt 0.970703 0.500000
vt 0.974609 0.500000
vt 0.974609 0.500000
vt 0.974609 0.500000
vt 0.974609 0.500000
vt 0.974609 0.500000
vt 0.970703 0.500000
vt 0.970703 0.500000
vt 0.970703 0.500000
vt 0.974609 0.500000
vt 0.970703 0.500000
vt 0.970703 0.500000
vt 0.970703 0.500000
vt 0.970703 0.500000
vt 0.974609 0.500000
vt 0.974609 0.500000
vt 0.970703 0.500000
vt 0.974609 0.500000
vt 0.974609 0.500000
vt 0.974609 0.500000
vt 0.974609 0.500000
vt 0.974609 0.500000
vt 0.970703 0.500000
vt 0.970703 0.500000
vt 0.970703 0.500000
vt 0.974609 0.500000
vt 0.970703 0.500000
vt 0.970703 0.500000
vt 0.970703 0.500000
vt 0.970703 0.500000
vt 0.974609 0.500000
vt 0.974609 0.500000
vt 0.970703 0.500000
vt 0.974609 0.500000
vt 0.974609 0.500000
vt 0.974609 0.500000
vt 0.970703 0.500000
vt 0.970703 0.500000
vt 0.970703 0.500000
vt 0.974609 0.500000
vt 0.970703 0.500000
vt 0.974609 0.500000
vt 0.974609 0.500000
vt 0.974609 0.500000
vt 0.970703 0.500000
vt 0.970703 0.500000
vt 0.970703 0.500000
vt 0.974609 0.500000
vt 0.970703 0.500000
vt 0.974609 0.500000
vt 0.974609 0.500000
vt 0.974609 0.500000
vt 0.970703 0.500000
vt 0.970703 0.500000
vt 0.970703 0.500000
vt 0.974609 0.500000
vt 0.970703 0.500000
vt 0.970703 0.500000
vt 0.974609 0.500000
vt 0.974609 0.500000
vt 0.970703 0.500000
vt 0.970703 0.500000
vt 0.970703 0.500000
vt 0.970703 0.500000
vt 0.970703 0.500000
vt 0.970703 0.500000
vt 0.970703 0.500000
vt 0.974609 0.500000
vt 0.974609 0.500000
vt 0.974609 0.500000
vt 0.974609 0.500000
vt 0.974609 0.500000
vt 0.974609 0.500000
vt 0.974609 0.500000
vt 0.970703 0.500000
vt 0.970703 0.500000
vt 0.970703 0.500000
vt 0.974609 0.500000
vt 0.970703 0.500000
vt 0.970703 0.500000
vt 0.970703 0.500000
vt 0.970703 0.500000
vt 0.974609 0.500000
vt 0.974609 0.500000
vt 0.970703 0.500000
vt 0.974609 0.500000
vt 0.974609 0.500000
vt 0.974609 0.500000
vt 0.970703 0.500000
vt 0.970703 0.500000
vt 0.970703 0.500000
vt 0.974609 0.500000
vt 0.970703 0.500000
vt 0.974609 0.500000
vt 0.974609 0.500000
vt 0.974609 0.500000
vt 0.974609 0.500000
vt 0.974609 0.500000
vt 0.970703 0.500000
vt 0.970703 0.500000
vt 0.970703 0.500000
vt 0.974609 0.500000
vt 0.970703 0.500000
vt 0.970703 0.500000
vt 0.970703 0.500000
vt 0.970703 0.500000
vt 0.974609 0.500000
vt 0.974609 0.500000
vt 0.970703 0.500000
vt 0.974609 0.500000
vt 0.974609 0.500000
vt 0.974609 0.500000
vt 0.974609 0.500000
vt 0.974609 0.500000
vt 0.970703 0.500000
vt 0.970703 0.500000
vt 0.970703 0.500000
vt 0.974609 0.500000
vt 0.970703 0.500000
vt 0.970703 0.500000
vt 0.970703 0.500000
vt 0.970703 0.500000
vt 0.974609 0.500000
vt 0.974609 0.500000
vt 0.970703 0.500000
vt 0.974609 0.500000
vt 0.974609 0.500000
vt 0.974609 0.500000
vt 0.970703 0.500000
vt 0.970703 0.500000
vt 0.970703 0.500000
vt 0.974609 0.500000
vt 0.970703 0.500000
vt 0.974609 0.500000
vt 0.974609 0.500000
vt 0.974609 0.500000
vt 0.970703 0.500000
vt 0.970703 0.500000
vt 0.970703 0.500000
vt 0.974609 0.500000
vt 0.970703 0.500000
vt 0.974609 0.500000
vt 0.974609 0.500000
vt 0.974609 0.500000
vt 0.970703 0.500000
vt 0.970703 0.500000
vt 0.970703 0.500000
vt 0.974609 0.500000
vt 0.970703 0.500000
vt 0.970703 0.500000
vt 0.974609 0.500000
vt 0.974609 0.500000
vt 0.970703 0.500000
vt 0.970703 0.500000
vt 0.970703 0.500000
vn -1.0000 0.0000 0.0000
vn 1.0000 0.0000 0.0000
vn 0.0000 -0.0000 1.0000
vn 0.0000 0.0000 -1.0000
vn 0.0000 -1.0000 -0.0000
vn 0.0000 1.0000 0.0000
usemtl palette
s off
f 1/1/1 2/2/1 94/3/1
f 3/4/1 2/2/1 1/1/1
f 4/5/1 3/6/1 1/7/1
f 5/8/1 3/6/1 4/5/1
f 6/9/1 3/6/1 5/8/1
f 7/10/1 3/6/1 6/9/1
f 8/11/1 4/5/1 1/7/1
f 8/12/1 5/13/1 4/14/1
f 9/15/1 6/9/1 5/8/1
f 9/16/1 5/13/1 8/12/1
f 10/17/1 7/18/1 6/19/1
f 10/20/1 6/9/1 9/15/1
f 11/21/1 3/6/1 7/10/1
f 11/22/1 7/18/1 10/17/1
f 12/23/1 10/20/1 9/15/1
f 12/23/1 9/15/1 8/11/1
f 12/23/1 11/21/1 10/20/1
f 12/23/1 8/11/1 1/7/1
f 13/24/1 3/6/1 11/21/1
f 13/24/1 11/21/1 12/23/1
f 14/25/1 12/23/1 1/7/1
f 14/26/1 13/27/1 12/28/1
f 15/29/1 3/6/1 13/24/1
f 15/30/1 13/27/1 14/26/1
f 16/31/1 14/25/1 1/7/1
f 16/31/1 15/29/1 14/25/1
f 17/32/1 15/29/1 16/31/1
f 18/33/1 15/29/1 17/32/1
f 19/34/1 3/6/1 15/29/1
f 19/34/1 15/29/1 18/33/1
f 20/35/1 16/31/1 1/7/1
f 20/36/1 17/37/1 16/38/1
f 21/39/1 18/33/1 17/32/1
f 21/40/1 17/37/1 20/36/1
f 22/41/1 19/42/1 18/43/1
f 22/44/1 18/33/1 21/39/1
f 23/45/1 3/6/1 19/34/1
f 23/46/1 19/42/1 22/41/1
f 24/47/1 20/35/1 1/7/1
f 24/47/1 22/44/1 21/39/1
f 24/47/1 23/45/1 22/44/1
f 24/47/1 21/39/1 20/35/1
f 25/48/1 23/45/1 24/47/1
f 26/49/1 23/45/1 25/48/1
f 27/50/1 3/6/1 23/45/1
f 27/50/1 23/45/1 26/49/1
f 28/51/1 24/47/1 1/7/1
f 28/52/1 25/53/1 24/54/1
f 29/55/1 26/49/1 25/48/1
f 29/56/1 25/53/1 28/52/1
f 30/57/1 27/58/1 26/59/1
f 30/60/1 26/49/1 29/55/1
f 31/61/1 3/6/1 27/50/1
f 31/62/1 27/58/1 30/57/1
f 32/63/1 30/60/1 29/55/1
f 32/63/1 29/55/1 28/51/1
f 32/63/1 31/61/1 30/60/1
f 33/64/1 3/6/1 31/61/1
f 33/64/1 31/61/1 32/63/1
f 34/65/1 32/63/1 28/51/1
f 34/66/1 33/67/1 32/68/1
f 35/69/1 3/6/1 33/64/1
f 35/70/1 33/67/1 34/66/1
f 36/71/1 28/51/1 1/7/1
f 36/71/1 34/65/1 28/51/1
f 36/71/1 35/69/1 34/65/1
f 37/72/1 35/69/1 36/71/1
f 38/73/1 36/71/1 1/7/1
f 38/74/1 37/75/1 36/76/1
f 39/77/1 35/69/1 37/72/1
f 39/78/1 37/75/1 38/74/1
f 40/79/1 38/73/1 1/7/1
f 40/79/1 39/77/1 38/73/1
f 41/80/1 3/6/1 35/69/1
f 41/80/1 39/77/1 40/79/1
f 41/80/1 35/69/1 39/77/1
f 42/81/1 40/79/1 1/7/1
f 42/82/1 41/83/1 40/84/1
f 43/85/1 3/6/1 41/80/1
f 43/86/1 41/83/1 42/82/1
f 44/87/1 1/1/1 94/3/1
f 44/88/1 42/81/1 1/7/1
f 44/88/1 43/85/1 42/81/1
f 45/89/1 3/6/1 43/85/1
f 45/89/1 43/85/1 44/88/1
f 45/90/1 2/2/1 3/4/1
f 95/91/1 44/87/1 94/3/1
f 95/91/1 45/90/1 44/87/1
f 46/92/1 2/2/1 45/90/1
f 46/92/1 45/90/1 95/91/1
f 93/93/2 47/94/2 48/95/2
f 48/95/2 47/94/2 49/96/2
f 48/97/2 49/98/2 50/99/2
f 50/99/2 49/98/2 51/100/2
f 51/100/2 49/98/2 52/101/2
f 52/101/2 49/98/2 53/102/2
f 48/97/2 50/99/2 54/103/2
f 50/104/2 51/105/2 54/106/2
f 51/100/2 52/101/2 55/107/2
f 54/106/2 51/105/2 55/108/2
f 52/109/2 53/110/2 56/111/2
f 55/107/2 52/101/2 56/112/2
f 53/102/2 49/98/2 57/113/2
f 56/111/2 53/110/2 57/114/2
f 55/107/2 56/112/2 58/115/2
f 54/103/2 55/107/2 58/115/2
f 56/112/2 57/113/2 58/115/2
f 48/97/2 54/103/2 58/115/2
f 57/113/2 49/98/2 59/116/2
f 58/115/2 57/113/2 59/116/2
f 48/97/2 58/115/2 60/117/2
f 58/118/2 59/119/2 60/120/2
f 59/116/2 49/98/2 61/121/2
f 60/120/2 59/119/2 61/122/2
f 48/97/2 60/117/2 62/123/2
f 60/117/2 61/121/2 62/123/2
f 62/123/2 61/121/2 63/124/2
f 63/124/2 61/121/2 64/125/2
f 61/121/2 49/98/2 65/126/2
f 64/125/2 61/121/2 65/126/2
f 48/97/2 62/123/2 66/127/2
f 62/128/2 63/129/2 66/130/2
f 63/124/2 64/125/2 67/131/2
f 66/130/2 63/129/2 67/132/2
f 64/133/2 65/134/2 68/135/2
f 67/131/2 64/125/2 68/136/2
f 65/126/2 49/98/2 69/137/2
f 68/135/2 65/134/2 69/138/2
f 48/97/2 66/127/2 70/139/2
f 67/131/2 68/136/2 70/139/2
f 68/136/2 69/137/2 70/139/2
f 66/127/2 67/131/2 70/139/2
f 70/139/2 69/137/2 71/140/2
f 71/140/2 69/137/2 72/141/2
f 69/137/2 49/98/2 73/142/2
f 72/141/2 69/137/2 73/142/2
f 48/97/2 70/139/2 74/143/2
f 70/144/2 71/145/2 74/146/2
f 71/140/2 72/141/2 75/147/2
f 74/146/2 71/145/2 75/148/2
f 72/149/2 73/150/2 76/151/2
f 75/147/2 72/141/2 76/152/2
f 73/142/2 49/98/2 77/153/2
f 76/151/2 73/150/2 77/154/2
f 75/147/2 76/152/2 78/155/2
f 74/143/2 75/147/2 78/155/2
f 76/152/2 77/153/2 78/155/2
f 77/153/2 49/98/2 79/156/2
f 78/155/2 77/153/2 79/156/2
f 74/143/2 78/155/2 80/157/2
f 78/158/2 79/159/2 80/160/2
f 79/156/2 49/98/2 81/161/2
f 80/160/2 79/159/2 81/162/2
f 48/97/2 74/143/2 82/163/2
f 74/143/2 80/157/2 82/163/2
f 80/157/2 81/161/2 82/163/2
f 82/163/2 81/161/2 83/164/2
f 48/97/2 82/163/2 84/165/2
f 82/166/2 83/167/2 84/168/2
f 83/164/2 81/161/2 85/169/2
f 84/168/2 83/167/2 85/170/2
f 48/97/2 84/165/2 86/171/2
f 84/165/2 85/169/2 86/171/2
f 81/161/2 49/98/2 87/172/2
f 86/171/2 85/169/2 87/172/2
f 85/169/2 81/161/2 87/172/2
f 48/97/2 86/171/2 88/173/2
f 86/174/2 87/175/2 88/176/2
f 87/172/2 49/98/2 89/177/2
f 88/176/2 87/175/2 89/178/2
f 93/93/2 48/95/2 90/179/2
f 48/97/2 88/173/2 90/180/2
f 88/173/2 89/177/2 90/180/2
f 89/177/2 49/98/2 91/181/2
f 90/180/2 89/177/2 91/181/2
f 49/96/2 47/94/2 91/182/2
f 93/93/2 90/179/2 92/183/2
f 90/179/2 91/182/2 92/183/2
f 91/182/2 47/94/2 96/184/2
f 92/183/2 91/182/2 96/184/2
f 93/93/3 95/91/3 94/3/3
f 92/183/3 95/91/3 93/93/3
f 2/2/4 46/92/4 47/94/4
f 47/94/4 46/92/4 96/184/4
f 2/2/5 93/93/5 94/3/5
f 47/94/5 93/93/5 2/2/5
f 95/91/6 92/183/6 46/92/6
f 46/92/6 92/183/6 96/184/6
