# Blender v2.81 (sub 16) OBJ File: ''
# www.blender.org
mtllib Scholar Head.mtl
o ObjObject.001
v -1.200000 0.099999 1.900000
v -1.200000 -0.000001 -2.000000
v -1.200000 -0.000001 2.000000
v -1.200000 0.100000 -1.900000
v -1.200000 3.099999 1.900000
v -1.200000 3.100000 -1.900000
v -1.200000 3.199999 2.000000
v -1.200000 3.200000 -2.000000
v 1.200000 -0.000001 2.000000
v 1.200000 -0.000001 -2.000000
v 1.200000 0.099999 1.900000
v 1.200000 0.100000 -1.900000
v 1.200000 3.099999 1.900000
v 1.200000 3.100000 -1.900000
v 1.200000 3.199999 2.000000
v 1.200000 3.200000 -2.000000
v -1.100000 0.099999 2.000000
v -1.200000 3.199999 2.000000
v -1.200000 -0.000001 2.000000
v -1.100000 3.099999 2.000000
v 1.100000 0.099999 2.000000
v 1.100000 3.099999 2.000000
v 1.200000 -0.000001 2.000000
v 1.200000 3.199999 2.000000
v -1.200000 -0.000001 -2.000000
v -1.200000 3.200000 -2.000000
v -1.100000 0.100000 -2.000000
v -1.100000 3.100000 -2.000000
v 1.100000 0.100000 -2.000000
v 1.100000 3.100000 -2.000000
v 1.200000 -0.000001 -2.000000
v 1.200000 3.200000 -2.000000
v -1.100000 -0.000001 1.900000
v 1.200000 -0.000001 2.000000
v -1.200000 -0.000001 2.000000
v 1.100000 -0.000001 1.900000
v -1.100000 -0.000001 -1.900000
v 1.100000 -0.000001 -1.900000
v -1.200000 -0.000001 -2.000000
v 1.200000 -0.000001 -2.000000
v -1.200000 3.199999 2.000000
v 1.200000 3.199999 2.000000
v -1.100000 3.199999 1.900000
v 1.100000 3.199999 1.900000
v -1.100000 3.200000 -1.900000
v 1.100000 3.200000 -1.900000
v -1.200000 3.200000 -2.000000
v 1.200000 3.200000 -2.000000
vt 0.970703 0.500000
vt 0.970703 0.500000
vt 0.970703 0.500000
vt 0.970703 0.500000
vt 0.970703 0.500000
vt 0.974609 0.500000
vt 0.974609 0.500000
vt 0.974609 0.500000
vt 0.970703 0.500000
vt 0.974609 0.500000
vt 0.970703 0.500000
vt 0.970703 0.500000
vt 0.970703 0.500000
vt 0.970703 0.500000
vt 0.970703 0.500000
vt 0.970703 0.500000
vt 0.970703 0.500000
vt 0.974609 0.500000
vt 0.974609 0.500000
vt 0.974609 0.500000
vt 0.970703 0.500000
vt 0.974609 0.500000
vt 0.970703 0.500000
vt 0.970703 0.500000
vt 0.970703 0.500000
vt 0.970703 0.500000
vt 0.970703 0.500000
vt 0.970703 0.500000
vt 0.970703 0.500000
vt 0.974609 0.500000
vt 0.974609 0.500000
vt 0.974609 0.500000
vt 0.970703 0.500000
vt 0.974609 0.500000
vt 0.970703 0.500000
vt 0.970703 0.500000
vt 0.970703 0.500000
vt 0.970703 0.500000
vt 0.970703 0.500000
vt 0.970703 0.500000
vt 0.970703 0.500000
vt 0.974609 0.500000
vt 0.974609 0.500000
vt 0.974609 0.500000
vt 0.970703 0.500000
vt 0.974609 0.500000
vt 0.970703 0.500000
vt 0.970703 0.500000
vt 0.970703 0.500000
vt 0.970703 0.500000
vt 0.970703 0.500000
vt 0.970703 0.500000
vt 0.970703 0.500000
vt 0.974609 0.500000
vt 0.974609 0.500000
vt 0.974609 0.500000
vt 0.970703 0.500000
vt 0.974609 0.500000
vt 0.970703 0.500000
vt 0.970703 0.500000
vt 0.970703 0.500000
vt 0.970703 0.500000
vt 0.970703 0.500000
vt 0.970703 0.500000
vt 0.970703 0.500000
vt 0.974609 0.500000
vt 0.974609 0.500000
vt 0.974609 0.500000
vt 0.970703 0.500000
vt 0.974609 0.500000
vt 0.970703 0.500000
vt 0.970703 0.500000
vn -1.0000 0.0000 0.0000
vn 1.0000 0.0000 0.0000
vn 0.0000 -0.0000 1.0000
vn -0.0000 0.0000 -1.0000
vn 0.0000 -1.0000 -0.0000
vn 0.0000 1.0000 0.0000
usemtl palette.001
s 1
f 1/1/1 2/2/1 3/3/1
f 4/4/1 2/2/1 1/1/1
f 5/5/1 1/1/1 3/3/1
f 5/6/1 4/7/1 1/8/1
f 6/9/1 2/2/1 4/4/1
f 6/10/1 4/7/1 5/6/1
f 7/11/1 5/5/1 3/3/1
f 7/11/1 6/9/1 5/5/1
f 8/12/1 2/2/1 6/9/1
f 8/12/1 6/9/1 7/11/1
f 9/13/2 10/14/2 11/15/2
f 11/15/2 10/14/2 12/16/2
f 9/13/2 11/15/2 13/17/2
f 11/18/2 12/19/2 13/20/2
f 12/16/2 10/14/2 14/21/2
f 13/20/2 12/19/2 14/22/2
f 9/13/2 13/17/2 15/23/2
f 13/17/2 14/21/2 15/23/2
f 14/21/2 10/14/2 16/24/2
f 15/23/2 14/21/2 16/24/2
f 17/25/3 18/26/3 19/27/3
f 20/28/3 18/26/3 17/25/3
f 21/29/3 17/25/3 19/27/3
f 21/30/3 20/31/3 17/32/3
f 22/33/3 18/26/3 20/28/3
f 22/34/3 20/31/3 21/30/3
f 23/35/3 21/29/3 19/27/3
f 23/35/3 22/33/3 21/29/3
f 24/36/3 18/26/3 22/33/3
f 24/36/3 22/33/3 23/35/3
f 25/37/4 26/38/4 27/39/4
f 27/39/4 26/38/4 28/40/4
f 25/37/4 27/39/4 29/41/4
f 27/42/4 28/43/4 29/44/4
f 28/40/4 26/38/4 30/45/4
f 29/44/4 28/43/4 30/46/4
f 25/37/4 29/41/4 31/47/4
f 29/41/4 30/45/4 31/47/4
f 30/45/4 26/38/4 32/48/4
f 31/47/4 30/45/4 32/48/4
f 33/49/5 34/50/5 35/51/5
f 36/52/5 34/50/5 33/49/5
f 37/53/5 33/49/5 35/51/5
f 37/54/5 36/55/5 33/56/5
f 38/57/5 34/50/5 36/52/5
f 38/58/5 36/55/5 37/54/5
f 39/59/5 37/53/5 35/51/5
f 39/59/5 38/57/5 37/53/5
f 40/60/5 34/50/5 38/57/5
f 40/60/5 38/57/5 39/59/5
f 41/61/6 42/62/6 43/63/6
f 43/63/6 42/62/6 44/64/6
f 41/61/6 43/63/6 45/65/6
f 43/66/6 44/67/6 45/68/6
f 44/64/6 42/62/6 46/69/6
f 45/68/6 44/67/6 46/70/6
f 41/61/6 45/65/6 47/71/6
f 45/65/6 46/69/6 47/71/6
f 46/69/6 42/62/6 48/72/6
f 47/71/6 46/69/6 48/72/6
