# MagicaVoxel @ Ephtracy

# group
g Stol_Uchitelya

# material
mtllib Stol_Uchitelya.mtl
usemtl palette

# normals
vn -1 0 0
vn 1 0 0
vn 0 0 1
vn 0 0 -1
vn 0 -1 0
vn 0 1 0

# texcoords
vt 0.970703 0.5
vt 0.974609 0.5

# verts
v -14 0 7
v -14 0 -7
v -14 1 6
v -14 1 -6
v -14 14 6
v -14 14 -6
v -14 15 7
v -14 15 -7
v -7 0 7
v -7 0 -7
v -7 1 6
v -7 1 -6
v -7 2 7
v -7 2 6
v -7 2 -5
v -7 2 -6
v -7 2 -7
v -7 3 7
v -7 3 6
v -7 3 -3
v -7 8 7
v -7 8 6
v -7 8 -3
v -7 9 7
v -7 9 6
v -7 9 -3
v -7 14 7
v -7 14 6
v -7 14 -3
v 13 0 7
v 13 0 -7
v 13 1 6
v 13 1 -6
v 13 8 -6
v 13 8 -7
v 13 9 -6
v 13 14 7
v 13 14 6
v 13 14 -6
v -13 0 7
v -13 0 -7
v -13 1 6
v -13 1 -6
v -13 2 7
v -13 2 6
v -13 2 -5
v -13 2 -6
v -13 2 -7
v -13 3 7
v -13 3 6
v -13 3 -3
v -13 8 7
v -13 8 6
v -13 8 -3
v -13 9 7
v -13 9 6
v -13 9 -3
v -13 14 7
v -13 14 6
v -13 14 -3
v -6 0 7
v -6 0 -7
v -6 1 6
v -6 1 -6
v -6 8 -6
v -6 8 -7
v -6 9 -6
v -6 14 7
v -6 14 6
v -6 14 -6
v 14 0 7
v 14 0 -7
v 14 1 6
v 14 1 -6
v 14 14 6
v 14 14 -6
v 14 15 7
v 14 15 -7
v -14 0 7
v -14 15 7
v -13 0 7
v -13 2 7
v -13 3 7
v -13 8 7
v -13 9 7
v -13 14 7
v -7 0 7
v -7 2 7
v -7 3 7
v -7 8 7
v -7 9 7
v -7 14 7
v -6 0 7
v -6 14 7
v 13 0 7
v 13 14 7
v 14 0 7
v 14 15 7
v -13 3 -3
v -13 8 -3
v -13 9 -3
v -13 14 -3
v -7 3 -3
v -7 8 -3
v -7 9 -3
v -7 14 -3
v -6 8 -6
v -6 9 -6
v -6 14 -6
v 13 8 -6
v 13 9 -6
v 13 14 -6
v -14 0 -7
v -14 15 -7
v -13 0 -7
v -13 2 -7
v -13 3 -7
v -13 14 -7
v -7 0 -7
v -7 2 -7
v -7 3 -7
v -7 14 -7
v -6 0 -7
v -6 8 -7
v -6 9 -7
v -6 14 -7
v 13 0 -7
v 13 8 -7
v 13 9 -7
v 13 14 -7
v 14 0 -7
v 14 15 -7
v -14 0 7
v -13 0 7
v -7 0 7
v -6 0 7
v 13 0 7
v 14 0 7
v -14 0 -7
v -13 0 -7
v -7 0 -7
v -6 0 -7
v 13 0 -7
v 14 0 -7
v -13 2 7
v -7 2 7
v -13 2 6
v -7 2 6
v -13 2 -5
v -7 2 -5
v -13 2 -6
v -7 2 -6
v -13 2 -7
v -7 2 -7
v -13 8 7
v -7 8 7
v -13 8 6
v -7 8 6
v -13 8 -3
v -7 8 -3
v -6 8 -6
v 13 8 -6
v -6 8 -7
v 13 8 -7
v -13 14 7
v -7 14 7
v -6 14 7
v 13 14 7
v -13 14 6
v -7 14 6
v -6 14 6
v 13 14 6
v -13 14 -3
v -7 14 -3
v -6 14 -6
v 13 14 -6
v -13 3 7
v -7 3 7
v -13 3 6
v -7 3 6
v -13 3 -3
v -7 3 -3
v -13 9 7
v -7 9 7
v -13 9 6
v -7 9 6
v -13 9 -3
v -7 9 -3
v -14 15 7
v 14 15 7
v -13 15 6
v 13 15 6
v -13 15 -6
v 13 15 -6
v -14 15 -7
v 14 15 -7

# faces
f 3/1/1 2/1/1 1/1/1
f 4/1/1 2/1/1 3/1/1
f 5/1/1 3/1/1 1/1/1
f 5/2/1 4/2/1 3/2/1
f 6/1/1 2/1/1 4/1/1
f 6/2/1 4/2/1 5/2/1
f 7/1/1 5/1/1 1/1/1
f 7/1/1 6/1/1 5/1/1
f 8/1/1 2/1/1 6/1/1
f 8/1/1 6/1/1 7/1/1
f 11/1/1 10/1/1 9/1/1
f 12/1/1 10/1/1 11/1/1
f 13/1/1 11/1/1 9/1/1
f 14/2/1 12/2/1 11/2/1
f 14/1/1 11/1/1 13/1/1
f 15/2/1 12/2/1 14/2/1
f 16/1/1 10/1/1 12/1/1
f 16/2/1 12/2/1 15/2/1
f 17/1/1 10/1/1 16/1/1
f 21/1/1 19/1/1 18/1/1
f 22/2/1 20/2/1 19/2/1
f 22/1/1 19/1/1 21/1/1
f 23/2/1 20/2/1 22/2/1
f 27/1/1 25/1/1 24/1/1
f 28/2/1 26/2/1 25/2/1
f 28/1/1 25/1/1 27/1/1
f 29/2/1 26/2/1 28/2/1
f 32/1/1 31/1/1 30/1/1
f 33/1/1 31/1/1 32/1/1
f 34/2/1 33/2/1 32/2/1
f 34/1/1 31/1/1 33/1/1
f 35/1/1 31/1/1 34/1/1
f 36/2/1 34/2/1 32/2/1
f 37/1/1 32/1/1 30/1/1
f 38/2/1 36/2/1 32/2/1
f 38/1/1 32/1/1 37/1/1
f 39/2/1 36/2/1 38/2/1
f 40/1/2 41/1/2 42/1/2
f 42/1/2 41/1/2 43/1/2
f 40/1/2 42/1/2 44/1/2
f 42/2/2 43/2/2 45/2/2
f 44/1/2 42/1/2 45/1/2
f 45/2/2 43/2/2 46/2/2
f 43/1/2 41/1/2 47/1/2
f 46/2/2 43/2/2 47/2/2
f 47/1/2 41/1/2 48/1/2
f 49/1/2 50/1/2 52/1/2
f 50/2/2 51/2/2 53/2/2
f 52/1/2 50/1/2 53/1/2
f 53/2/2 51/2/2 54/2/2
f 55/1/2 56/1/2 58/1/2
f 56/2/2 57/2/2 59/2/2
f 58/1/2 56/1/2 59/1/2
f 59/2/2 57/2/2 60/2/2
f 61/1/2 62/1/2 63/1/2
f 63/1/2 62/1/2 64/1/2
f 63/2/2 64/2/2 65/2/2
f 64/1/2 62/1/2 65/1/2
f 65/1/2 62/1/2 66/1/2
f 63/2/2 65/2/2 67/2/2
f 61/1/2 63/1/2 68/1/2
f 63/2/2 67/2/2 69/2/2
f 68/1/2 63/1/2 69/1/2
f 69/2/2 67/2/2 70/2/2
f 71/1/2 72/1/2 73/1/2
f 73/1/2 72/1/2 74/1/2
f 71/1/2 73/1/2 75/1/2
f 73/2/2 74/2/2 75/2/2
f 74/1/2 72/1/2 76/1/2
f 75/2/2 74/2/2 76/2/2
f 71/1/2 75/1/2 77/1/2
f 75/1/2 76/1/2 77/1/2
f 76/1/2 72/1/2 78/1/2
f 77/1/2 76/1/2 78/1/2
f 81/1/3 80/1/3 79/1/3
f 82/1/3 80/1/3 81/1/3
f 83/1/3 80/1/3 82/1/3
f 84/1/3 80/1/3 83/1/3
f 85/1/3 80/1/3 84/1/3
f 86/1/3 80/1/3 85/1/3
f 88/1/3 83/1/3 82/1/3
f 89/1/3 83/1/3 88/1/3
f 90/1/3 85/1/3 84/1/3
f 91/1/3 85/1/3 90/1/3
f 92/1/3 80/1/3 86/1/3
f 93/1/3 91/1/3 90/1/3
f 93/1/3 92/1/3 91/1/3
f 93/1/3 89/1/3 88/1/3
f 93/1/3 88/1/3 87/1/3
f 93/1/3 90/1/3 89/1/3
f 94/1/3 80/1/3 92/1/3
f 94/1/3 92/1/3 93/1/3
f 96/1/3 80/1/3 94/1/3
f 97/1/3 96/1/3 95/1/3
f 98/1/3 80/1/3 96/1/3
f 98/1/3 96/1/3 97/1/3
f 103/1/3 100/1/3 99/1/3
f 104/1/3 100/1/3 103/1/3
f 105/1/3 102/1/3 101/1/3
f 106/1/3 102/1/3 105/1/3
f 110/1/3 108/1/3 107/1/3
f 111/2/3 109/2/3 108/2/3
f 111/1/3 108/1/3 110/1/3
f 112/2/3 109/2/3 111/2/3
f 113/1/4 114/1/4 115/1/4
f 115/1/4 114/1/4 116/1/4
f 116/1/4 114/1/4 117/1/4
f 117/1/4 114/1/4 118/1/4
f 116/1/4 117/1/4 120/1/4
f 117/2/4 118/2/4 121/2/4
f 120/1/4 117/1/4 121/1/4
f 118/1/4 114/1/4 122/1/4
f 121/2/4 118/2/4 122/2/4
f 120/1/4 121/1/4 123/1/4
f 119/1/4 120/1/4 123/1/4
f 121/1/4 122/1/4 123/1/4
f 123/1/4 122/1/4 124/1/4
f 124/1/4 122/1/4 125/1/4
f 122/1/4 114/1/4 126/1/4
f 125/1/4 122/1/4 126/1/4
f 124/1/4 125/1/4 128/1/4
f 125/2/4 126/2/4 129/2/4
f 128/1/4 125/1/4 129/1/4
f 126/1/4 114/1/4 130/1/4
f 129/2/4 126/2/4 130/2/4
f 127/1/4 128/1/4 131/1/4
f 128/1/4 129/1/4 131/1/4
f 129/1/4 130/1/4 131/1/4
f 130/1/4 114/1/4 132/1/4
f 131/1/4 130/1/4 132/1/4
f 139/1/5 134/1/5 133/1/5
f 140/1/5 134/1/5 139/1/5
f 141/1/5 136/1/5 135/1/5
f 142/1/5 136/1/5 141/1/5
f 143/1/5 138/1/5 137/1/5
f 144/1/5 138/1/5 143/1/5
f 147/1/5 146/1/5 145/1/5
f 148/1/5 146/1/5 147/1/5
f 149/2/5 148/2/5 147/2/5
f 150/2/5 148/2/5 149/2/5
f 151/1/5 150/1/5 149/1/5
f 152/1/5 150/1/5 151/1/5
f 153/1/5 152/1/5 151/1/5
f 154/1/5 152/1/5 153/1/5
f 157/1/5 156/1/5 155/1/5
f 158/1/5 156/1/5 157/1/5
f 159/2/5 158/2/5 157/2/5
f 160/2/5 158/2/5 159/2/5
f 163/1/5 162/1/5 161/1/5
f 164/1/5 162/1/5 163/1/5
f 169/1/5 166/1/5 165/1/5
f 170/1/5 166/1/5 169/1/5
f 171/1/5 168/1/5 167/1/5
f 172/1/5 168/1/5 171/1/5
f 173/2/5 170/2/5 169/2/5
f 174/2/5 170/2/5 173/2/5
f 175/2/5 172/2/5 171/2/5
f 176/2/5 172/2/5 175/2/5
f 177/1/6 178/1/6 179/1/6
f 179/1/6 178/1/6 180/1/6
f 179/2/6 180/2/6 181/2/6
f 181/2/6 180/2/6 182/2/6
f 183/1/6 184/1/6 185/1/6
f 185/1/6 184/1/6 186/1/6
f 185/2/6 186/2/6 187/2/6
f 187/2/6 186/2/6 188/2/6
f 189/1/6 190/1/6 191/1/6
f 191/1/6 190/1/6 192/1/6
f 189/1/6 191/1/6 193/1/6
f 191/2/6 192/2/6 193/2/6
f 192/1/6 190/1/6 194/1/6
f 193/2/6 192/2/6 194/2/6
f 189/1/6 193/1/6 195/1/6
f 193/1/6 194/1/6 195/1/6
f 194/1/6 190/1/6 196/1/6
f 195/1/6 194/1/6 196/1/6
