# MagicaVoxel @ Ephtracy

# group
g Uchenick

# material
mtllib Uchenick.mtl
usemtl palette

# normals
vn -1 0 0
vn 1 0 0
vn 0 0 1
vn 0 0 -1
vn 0 -1 0
vn 0 1 0

# texcoords
vt 0.970703 0.5
vt 0.974609 0.5

# verts
v -7 23 6
v -7 23 1
v -7 23 -0
v -7 23 -9
v -7 24 6
v -7 24 1
v -7 24 -0
v -7 24 -9
v -5 0 9
v -5 0 3
v -5 1 8
v -5 1 4
v -5 11 8
v -5 11 4
v -5 12 9
v -5 12 3
v -5 16 9
v -5 16 3
v -5 17 8
v -5 17 4
v -5 23 6
v -5 23 5
v -5 24 6
v -5 24 5
v -5 28 8
v -5 28 4
v -5 29 9
v -5 29 3
v -1 12 7
v -1 12 5
v -1 16 7
v -1 16 5
v 4 17 4
v 4 17 3
v 4 28 4
v 4 28 3
v 6 23 5
v 6 23 1
v 6 23 -0
v 6 23 -8
v 6 24 5
v 6 24 1
v 6 24 -0
v 6 24 -8
v -6 23 5
v -6 23 1
v -6 23 -0
v -6 23 -9
v -6 24 5
v -6 24 1
v -6 24 -0
v -6 24 -9
v -4 17 4
v -4 17 3
v -4 28 4
v -4 28 3
v 1 12 7
v 1 12 5
v 1 16 7
v 1 16 5
v 5 0 9
v 5 0 3
v 5 1 8
v 5 1 4
v 5 11 8
v 5 11 4
v 5 12 9
v 5 12 3
v 5 16 9
v 5 16 3
v 5 17 8
v 5 17 4
v 5 23 6
v 5 23 5
v 5 24 6
v 5 24 5
v 5 28 8
v 5 28 4
v 5 29 9
v 5 29 3
v 7 23 6
v 7 23 1
v 7 23 -0
v 7 23 -8
v 7 24 6
v 7 24 1
v 7 24 -0
v 7 24 -8
v -5 0 9
v -5 12 9
v -5 16 9
v -5 29 9
v -4 1 9
v -4 11 9
v -4 17 9
v -4 28 9
v 4 1 9
v 4 11 9
v 4 17 9
v 4 28 9
v 5 0 9
v 5 12 9
v 5 16 9
v 5 29 9
v -1 12 7
v -1 16 7
v 1 12 7
v 1 16 7
v -7 23 6
v -7 24 6
v -6 23 6
v -6 24 6
v -5 23 6
v -5 24 6
v 5 23 6
v 5 24 6
v 6 23 6
v 6 24 6
v 7 23 6
v 7 24 6
v -6 23 5
v -6 24 5
v -5 23 5
v -5 24 5
v -1 12 5
v -1 16 5
v 1 12 5
v 1 16 5
v 5 23 5
v 5 24 5
v 6 23 5
v 6 24 5
v -4 17 4
v -4 28 4
v 4 17 4
v 4 28 4
v -5 0 3
v -5 12 3
v -5 16 3
v -5 29 3
v -4 1 3
v -4 11 3
v -4 17 3
v -4 28 3
v 4 1 3
v 4 11 3
v 4 17 3
v 4 28 3
v 5 0 3
v 5 12 3
v 5 16 3
v 5 29 3
v 6 23 -8
v 6 24 -8
v 7 23 -8
v 7 24 -8
v -7 23 -9
v -7 24 -9
v -6 23 -9
v -6 24 -9
v -5 0 9
v 5 0 9
v -4 0 8
v 4 0 8
v -4 0 4
v 4 0 4
v -5 0 3
v 5 0 3
v -5 16 9
v 5 16 9
v -4 16 8
v 4 16 8
v -1 16 7
v 1 16 7
v -1 16 5
v 1 16 5
v -4 16 4
v 4 16 4
v -5 16 3
v 5 16 3
v -7 23 6
v -6 23 6
v -5 23 6
v 5 23 6
v 6 23 6
v 7 23 6
v -6 23 5
v -5 23 5
v 5 23 5
v 6 23 5
v -7 23 1
v -6 23 1
v 6 23 1
v 7 23 1
v -7 23 -0
v -6 23 -0
v 6 23 -0
v 7 23 -0
v 6 23 -8
v 7 23 -8
v -7 23 -9
v -6 23 -9
v -4 28 4
v 4 28 4
v -4 28 3
v 4 28 3
v -5 12 9
v 5 12 9
v -4 12 8
v 4 12 8
v -1 12 7
v 1 12 7
v -1 12 5
v 1 12 5
v -4 12 4
v 4 12 4
v -5 12 3
v 5 12 3
v -4 17 4
v 4 17 4
v -4 17 3
v 4 17 3
v -7 24 6
v -6 24 6
v -5 24 6
v 5 24 6
v 6 24 6
v 7 24 6
v -6 24 5
v -5 24 5
v 5 24 5
v 6 24 5
v -7 24 1
v -6 24 1
v 6 24 1
v 7 24 1
v -7 24 -0
v -6 24 -0
v 6 24 -0
v 7 24 -0
v 6 24 -8
v 7 24 -8
v -7 24 -9
v -6 24 -9
v -5 29 9
v 5 29 9
v -4 29 8
v 4 29 8
v -4 29 4
v 4 29 4
v -5 29 3
v 5 29 3

# faces
f 5/1/1 2/1/1 1/1/1
f 6/2/1 3/2/1 2/2/1
f 6/1/1 2/1/1 5/1/1
f 7/1/1 4/1/1 3/1/1
f 7/2/1 3/2/1 6/2/1
f 8/1/1 4/1/1 7/1/1
f 11/1/1 10/1/1 9/1/1
f 12/1/1 10/1/1 11/1/1
f 13/1/1 11/1/1 9/1/1
f 13/2/1 12/2/1 11/2/1
f 14/1/1 10/1/1 12/1/1
f 14/2/1 12/2/1 13/2/1
f 15/1/1 13/1/1 9/1/1
f 15/1/1 14/1/1 13/1/1
f 16/1/1 10/1/1 14/1/1
f 16/1/1 14/1/1 15/1/1
f 19/1/1 18/1/1 17/1/1
f 20/1/1 18/1/1 19/1/1
f 21/2/1 20/2/1 19/2/1
f 22/2/1 20/2/1 21/2/1
f 23/2/1 21/2/1 19/2/1
f 24/2/1 20/2/1 22/2/1
f 25/1/1 19/1/1 17/1/1
f 25/2/1 24/2/1 23/2/1
f 25/2/1 23/2/1 19/2/1
f 26/2/1 20/2/1 24/2/1
f 26/2/1 24/2/1 25/2/1
f 26/1/1 18/1/1 20/1/1
f 27/1/1 25/1/1 17/1/1
f 27/1/1 26/1/1 25/1/1
f 28/1/1 18/1/1 26/1/1
f 28/1/1 26/1/1 27/1/1
f 31/2/1 30/2/1 29/2/1
f 32/2/1 30/2/1 31/2/1
f 35/1/1 34/1/1 33/1/1
f 36/1/1 34/1/1 35/1/1
f 41/1/1 38/1/1 37/1/1
f 42/2/1 39/2/1 38/2/1
f 42/1/1 38/1/1 41/1/1
f 43/1/1 40/1/1 39/1/1
f 43/2/1 39/2/1 42/2/1
f 44/1/1 40/1/1 43/1/1
f 45/1/2 46/1/2 49/1/2
f 46/2/2 47/2/2 50/2/2
f 49/1/2 46/1/2 50/1/2
f 47/1/2 48/1/2 51/1/2
f 50/2/2 47/2/2 51/2/2
f 51/1/2 48/1/2 52/1/2
f 53/1/2 54/1/2 55/1/2
f 55/1/2 54/1/2 56/1/2
f 57/2/2 58/2/2 59/2/2
f 59/2/2 58/2/2 60/2/2
f 61/1/2 62/1/2 63/1/2
f 63/1/2 62/1/2 64/1/2
f 61/1/2 63/1/2 65/1/2
f 63/2/2 64/2/2 65/2/2
f 64/1/2 62/1/2 66/1/2
f 65/2/2 64/2/2 66/2/2
f 61/1/2 65/1/2 67/1/2
f 65/1/2 66/1/2 67/1/2
f 66/1/2 62/1/2 68/1/2
f 67/1/2 66/1/2 68/1/2
f 69/1/2 70/1/2 71/1/2
f 71/1/2 70/1/2 72/1/2
f 71/2/2 72/2/2 73/2/2
f 73/2/2 72/2/2 74/2/2
f 71/2/2 73/2/2 75/2/2
f 74/2/2 72/2/2 76/2/2
f 69/1/2 71/1/2 77/1/2
f 75/2/2 76/2/2 77/2/2
f 71/2/2 75/2/2 77/2/2
f 76/2/2 72/2/2 78/2/2
f 77/2/2 76/2/2 78/2/2
f 72/1/2 70/1/2 78/1/2
f 69/1/2 77/1/2 79/1/2
f 77/1/2 78/1/2 79/1/2
f 78/1/2 70/1/2 80/1/2
f 79/1/2 78/1/2 80/1/2
f 81/1/2 82/1/2 85/1/2
f 82/2/2 83/2/2 86/2/2
f 85/1/2 82/1/2 86/1/2
f 83/1/2 84/1/2 87/1/2
f 86/2/2 83/2/2 87/2/2
f 87/1/2 84/1/2 88/1/2
f 93/1/3 90/1/3 89/1/3
f 94/1/3 90/1/3 93/1/3
f 95/1/3 92/1/3 91/1/3
f 96/1/3 92/1/3 95/1/3
f 97/1/3 93/1/3 89/1/3
f 97/2/3 94/2/3 93/2/3
f 98/1/3 90/1/3 94/1/3
f 98/2/3 94/2/3 97/2/3
f 99/2/3 96/2/3 95/2/3
f 99/1/3 95/1/3 91/1/3
f 100/1/3 92/1/3 96/1/3
f 100/2/3 96/2/3 99/2/3
f 101/1/3 97/1/3 89/1/3
f 101/1/3 98/1/3 97/1/3
f 102/1/3 90/1/3 98/1/3
f 102/1/3 98/1/3 101/1/3
f 103/1/3 99/1/3 91/1/3
f 103/1/3 100/1/3 99/1/3
f 104/1/3 92/1/3 100/1/3
f 104/1/3 100/1/3 103/1/3
f 107/2/3 106/2/3 105/2/3
f 108/2/3 106/2/3 107/2/3
f 111/1/3 110/1/3 109/1/3
f 112/1/3 110/1/3 111/1/3
f 113/2/3 112/2/3 111/2/3
f 114/2/3 112/2/3 113/2/3
f 117/2/3 116/2/3 115/2/3
f 118/2/3 116/2/3 117/2/3
f 119/1/3 118/1/3 117/1/3
f 120/1/3 118/1/3 119/1/3
f 121/2/4 122/2/4 123/2/4
f 123/2/4 122/2/4 124/2/4
f 125/2/4 126/2/4 127/2/4
f 127/2/4 126/2/4 128/2/4
f 129/2/4 130/2/4 131/2/4
f 131/2/4 130/2/4 132/2/4
f 133/2/4 134/2/4 135/2/4
f 135/2/4 134/2/4 136/2/4
f 137/1/4 138/1/4 141/1/4
f 141/1/4 138/1/4 142/1/4
f 139/1/4 140/1/4 143/1/4
f 143/1/4 140/1/4 144/1/4
f 137/1/4 141/1/4 145/1/4
f 141/2/4 142/2/4 145/2/4
f 142/1/4 138/1/4 146/1/4
f 145/2/4 142/2/4 146/2/4
f 139/1/4 143/1/4 147/1/4
f 144/1/4 140/1/4 148/1/4
f 137/1/4 145/1/4 149/1/4
f 145/1/4 146/1/4 149/1/4
f 146/1/4 138/1/4 150/1/4
f 149/1/4 146/1/4 150/1/4
f 147/1/4 148/1/4 151/1/4
f 139/1/4 147/1/4 151/1/4
f 148/1/4 140/1/4 152/1/4
f 151/1/4 148/1/4 152/1/4
f 153/1/4 154/1/4 155/1/4
f 155/1/4 154/1/4 156/1/4
f 157/1/4 158/1/4 159/1/4
f 159/1/4 158/1/4 160/1/4
f 163/1/5 162/1/5 161/1/5
f 164/1/5 162/1/5 163/1/5
f 165/1/5 163/1/5 161/1/5
f 165/2/5 164/2/5 163/2/5
f 166/1/5 162/1/5 164/1/5
f 166/2/5 164/2/5 165/2/5
f 167/1/5 165/1/5 161/1/5
f 167/1/5 166/1/5 165/1/5
f 168/1/5 162/1/5 166/1/5
f 168/1/5 166/1/5 167/1/5
f 171/1/5 170/1/5 169/1/5
f 172/1/5 170/1/5 171/1/5
f 173/2/5 172/2/5 171/2/5
f 174/2/5 172/2/5 173/2/5
f 175/2/5 173/2/5 171/2/5
f 176/2/5 172/2/5 174/2/5
f 177/1/5 171/1/5 169/1/5
f 177/2/5 176/2/5 175/2/5
f 177/2/5 175/2/5 171/2/5
f 178/2/5 172/2/5 176/2/5
f 178/2/5 176/2/5 177/2/5
f 178/1/5 170/1/5 172/1/5
f 179/1/5 177/1/5 169/1/5
f 179/1/5 178/1/5 177/1/5
f 180/1/5 170/1/5 178/1/5
f 180/1/5 178/1/5 179/1/5
f 187/1/5 182/1/5 181/1/5
f 187/2/5 183/2/5 182/2/5
f 188/2/5 183/2/5 187/2/5
f 189/2/5 185/2/5 184/2/5
f 190/1/5 186/1/5 185/1/5
f 190/2/5 185/2/5 189/2/5
f 191/1/5 187/1/5 181/1/5
f 192/1/5 187/1/5 191/1/5
f 193/1/5 186/1/5 190/1/5
f 194/1/5 186/1/5 193/1/5
f 195/2/5 192/2/5 191/2/5
f 196/2/5 192/2/5 195/2/5
f 197/2/5 194/2/5 193/2/5
f 198/2/5 194/2/5 197/2/5
f 199/1/5 198/1/5 197/1/5
f 200/1/5 198/1/5 199/1/5
f 201/1/5 196/1/5 195/1/5
f 202/1/5 196/1/5 201/1/5
f 205/1/5 204/1/5 203/1/5
f 206/1/5 204/1/5 205/1/5
f 207/1/6 208/1/6 209/1/6
f 209/1/6 208/1/6 210/1/6
f 209/2/6 210/2/6 211/2/6
f 211/2/6 210/2/6 212/2/6
f 209/2/6 211/2/6 213/2/6
f 212/2/6 210/2/6 214/2/6
f 207/1/6 209/1/6 215/1/6
f 213/2/6 214/2/6 215/2/6
f 209/2/6 213/2/6 215/2/6
f 214/2/6 210/2/6 216/2/6
f 215/2/6 214/2/6 216/2/6
f 210/1/6 208/1/6 216/1/6
f 207/1/6 215/1/6 217/1/6
f 215/1/6 216/1/6 217/1/6
f 216/1/6 208/1/6 218/1/6
f 217/1/6 216/1/6 218/1/6
f 219/1/6 220/1/6 221/1/6
f 221/1/6 220/1/6 222/1/6
f 223/1/6 224/1/6 229/1/6
f 224/2/6 225/2/6 229/2/6
f 229/2/6 225/2/6 230/2/6
f 226/2/6 227/2/6 231/2/6
f 227/1/6 228/1/6 232/1/6
f 231/2/6 227/2/6 232/2/6
f 223/1/6 229/1/6 233/1/6
f 233/1/6 229/1/6 234/1/6
f 232/1/6 228/1/6 235/1/6
f 235/1/6 228/1/6 236/1/6
f 233/2/6 234/2/6 237/2/6
f 237/2/6 234/2/6 238/2/6
f 235/2/6 236/2/6 239/2/6
f 239/2/6 236/2/6 240/2/6
f 239/1/6 240/1/6 241/1/6
f 241/1/6 240/1/6 242/1/6
f 237/1/6 238/1/6 243/1/6
f 243/1/6 238/1/6 244/1/6
f 245/1/6 246/1/6 247/1/6
f 247/1/6 246/1/6 248/1/6
f 245/1/6 247/1/6 249/1/6
f 247/2/6 248/2/6 249/2/6
f 248/1/6 246/1/6 250/1/6
f 249/2/6 248/2/6 250/2/6
f 245/1/6 249/1/6 251/1/6
f 249/1/6 250/1/6 251/1/6
f 250/1/6 246/1/6 252/1/6
f 251/1/6 250/1/6 252/1/6
